<svg width="32" height="31" viewBox="0 0 32 31" fill="none" xmlns="http://www.w3.org/2000/svg">
<path d="M6.50004 0.75C4.82034 0.75 3.20943 1.41726 2.0217 2.60499C0.833971 3.79272 0.16671 5.40363 0.16671 7.08333V19.75C0.16671 21.4297 0.833971 23.0406 2.0217 24.2283C3.20943 25.4161 4.82034 26.0833 6.50004 26.0833H13.9797L21.5195 30.6069C21.7466 30.7432 22.0042 30.8203 22.2688 30.8313C22.5334 30.8422 22.7965 30.7866 23.0341 30.6696C23.2716 30.5525 23.476 30.3778 23.6286 30.1613C23.7811 29.9449 23.8769 29.6936 23.9072 29.4305L23.9167 29.25V26.0833H25.5C27.1249 26.0833 28.6877 25.4588 29.865 24.3389C31.0423 23.2191 31.7442 21.6895 31.8255 20.0667L31.8334 19.75V7.08333C31.8334 5.40363 31.1661 3.79272 29.9784 2.60499C28.7907 1.41726 27.1797 0.75 25.5 0.75H6.50004ZM12.8334 15H22.3334C22.7533 15 23.156 15.1668 23.453 15.4637C23.7499 15.7607 23.9167 16.1634 23.9167 16.5833C23.9167 17.0033 23.7499 17.406 23.453 17.7029C23.156 17.9999 22.7533 18.1667 22.3334 18.1667H12.8334C12.4134 18.1667 12.0107 17.9999 11.7138 17.7029C11.4169 17.406 11.25 17.0033 11.25 16.5833C11.25 16.1634 11.4169 15.7607 11.7138 15.4637C12.0107 15.1668 12.4134 15 12.8334 15ZM9.66671 8.66667H22.3334C22.7533 8.66667 23.156 8.83348 23.453 9.13041C23.7499 9.42735 23.9167 9.83007 23.9167 10.25C23.9167 10.6699 23.7499 11.0727 23.453 11.3696C23.156 11.6665 22.7533 11.8333 22.3334 11.8333H9.66671C9.24678 11.8333 8.84405 11.6665 8.54712 11.3696C8.25019 11.0727 8.08338 10.6699 8.08338 10.25C8.08338 9.83007 8.25019 9.42735 8.54712 9.13041C8.84405 8.83348 9.24678 8.66667 9.66671 8.66667Z" fill="#1F41BB"/>
</svg>
