<svg width="45" height="45" viewBox="0 0 45 45" fill="none" xmlns="http://www.w3.org/2000/svg">
<path d="M22.5488 29.0774C26.6713 29.0774 30.0104 25.7384 30.0104 21.6158V11.3561C30.0104 7.2336 26.6713 3.89453 22.5488 3.89453C18.4262 3.89453 15.0872 7.2336 15.0872 11.3561V21.6158C15.0872 25.7384 18.4262 29.0774 22.5488 29.0774Z" stroke="white" stroke-width="2.7981" stroke-linecap="round" stroke-linejoin="round"/>
<path d="M8.27844 18.1648V21.336C8.27844 29.208 14.6768 35.6063 22.5488 35.6063C30.4207 35.6063 36.8191 29.208 36.8191 21.336V18.1648" stroke="white" stroke-width="2.7981" stroke-linecap="round" stroke-linejoin="round"/>
<path d="M19.9558 12.1585C21.6347 11.5429 23.4628 11.5429 25.1416 12.1585" stroke="white" stroke-width="2.7981" stroke-linecap="round" stroke-linejoin="round"/>
<path d="M21.0563 16.1131C22.0449 15.8519 23.0709 15.8519 24.0596 16.1131" stroke="white" stroke-width="2.7981" stroke-linecap="round" stroke-linejoin="round"/>
<path d="M22.5487 35.6064V41.2026" stroke="white" stroke-width="2.7981" stroke-linecap="round" stroke-linejoin="round"/>
</svg>
