<svg width="325" height="403" viewBox="0 0 325 403" fill="none" xmlns="http://www.w3.org/2000/svg">
<path d="M66.0919 300.812C65.3134 298.783 62.4375 298.021 60.3929 299.703C57.8673 301.781 57.4727 306.182 61.3234 306.952C64.4187 307.573 67.2166 303.741 66.0919 300.812Z" fill="#1F41BB"/>
<path d="M174.646 248.464C170.816 252.965 167.101 257.562 163.91 262.557C154.548 277.202 150.071 294.717 137.371 306.71C134.945 309.001 132.754 309.734 130.216 310.58C123.869 312.698 122.669 314.108 120.715 316.515C117.322 320.699 113.982 324.974 110.718 329.301C102.995 312.377 88.2023 299.006 70.5904 293.02C83.5055 277.738 83.6828 278.964 83.592 270.866C83.3156 246.183 93.855 223.75 109.958 205.163L110.207 201.703C92.4729 221.334 81.1403 245.014 81.4905 271.353C81.5559 276.221 81.1614 277.242 78.3023 280.626L68.4192 292.322C66.5835 291.769 64.7204 291.294 62.8341 290.906C57.6267 289.836 55.8839 290.706 52.9763 293.145C52.7632 293.322 52.9362 293.132 33.0539 309.558C28.3191 310.949 24.3207 314.095 20.776 316.888C5.28244 329.086 7.94312 326.778 1.68283 332.222C0.452711 333.291 0.00750808 333.526 0.00117815 334.154C-0.0621211 341.539 2.42554 349.878 7.39875 358.942C25.055 391.124 56.3544 406.073 86.4574 402.475C86.8034 402.433 87.1073 402.224 87.2676 401.916C93.2325 390.52 98.3429 380.536 101.288 374.525C103.122 370.786 103.687 368.821 102.508 364.498C106.321 359.221 109.709 353.638 112.627 347.81C114.761 343.559 115.754 341.394 111.688 331.527C115.164 326.892 118.729 322.317 122.359 317.844C123.122 316.903 123.988 315.833 125.034 315.169C129.974 312.025 134.105 312.702 138.825 308.244C147.132 300.401 152.035 290.29 156.884 280.238C163.982 265.54 166.603 261.153 177.254 248.669C176.387 248.601 175.519 248.534 174.65 248.464H174.646ZM112.353 342.303C111.944 346.415 104.192 358.444 101.734 361.945C92.1311 331.958 69.4721 312.884 44.7326 309.2C42.7556 308.906 40.0823 308.603 37.2591 308.814C38.3141 307.938 54.0587 294.989 54.3288 294.763C56.7911 292.698 57.8968 292.041 62.4058 292.974C84.858 297.605 104.595 315.399 111.524 337.25C112.013 338.794 112.522 340.588 112.351 342.305L112.353 342.303Z" fill="#1F41BB"/>
<path d="M115.24 304.288C114.347 304.288 113.849 303.233 114.44 302.545C121.61 294.208 126.562 283.892 128.765 272.712C128.792 272.572 128.855 272.317 128.95 271.954C131.518 261.983 131.735 252.568 129.598 243.974C129.467 243.451 129.754 242.913 130.261 242.729C137.92 239.94 152.523 235.971 161.469 229.791C167.755 225.448 171.888 219.758 173.106 213.767C173.874 209.991 172.317 209.197 168.78 209.609C154.485 211.274 138.002 213.445 123.283 218.175C111.682 221.904 102.221 233.359 95.275 242.921C94.9332 243.392 94.2749 243.497 93.8023 243.155C93.3317 242.813 93.2262 242.153 93.5681 241.682C100.704 231.861 110.456 220.083 122.637 216.169C137.538 211.379 154.141 209.191 168.535 207.516C170.605 207.273 172.72 207.256 174.163 208.735C175.325 209.925 175.665 211.761 175.171 214.19C173.844 220.718 169.403 226.875 162.668 231.529C153.553 237.825 139.253 241.761 131.866 244.394C133.85 253.076 133.556 262.521 130.993 272.482C130.915 272.788 130.858 273.003 130.834 273.121C128.562 284.658 123.447 295.31 116.041 303.922C115.833 304.165 115.537 304.29 115.242 304.29L115.24 304.288Z" fill="#1F41BB"/>
<path d="M107.266 227.181C107.998 226.487 108.741 225.811 109.5 225.16C110.085 215.481 111.254 197.466 113.395 169.019C112.689 168.931 111.99 168.844 111.3 168.756C108.981 199.547 107.8 218.144 107.266 227.181Z" fill="#1F41BB"/>
<path d="M262.421 22.0234C262.187 14.4655 256.024 10.9144 249.713 10.3447C244.661 9.88899 240.515 7.84864 191.133 3.42825C145.117 -0.692533 135.341 0.0375182 135.128 0.0691679C130.984 -0.293748 127.568 2.848 127.256 6.53624C127.235 6.63541 126.19 11.6023 124.353 25.91C125.049 25.95 125.754 25.9922 126.463 26.0344C128.275 11.9419 129.307 7.01309 129.336 6.85274C129.566 4.28912 131.664 2.1496 134.594 2.1496C162.931 2.1496 229.518 8.67153 247.573 12.2542C250.234 12.4926 252.458 14.7376 252.251 17.9089C252.232 18.1875 251.027 46.5202 244.522 119.973C238.017 193.433 231.972 244.554 231.906 245.092C231.651 247.941 229.132 250.034 226.305 249.774C225.425 249.698 213.693 250.591 169.983 247.025C153.529 245.681 141.323 244.261 132.565 243.033C131.879 243.269 131.229 243.497 130.621 243.719C130.727 244.143 130.826 244.565 130.917 244.987C160.61 249.125 210.982 252.471 226.186 251.882C233.512 252.446 241.99 249.734 242.617 242.634C247.406 215.272 263.003 40.8549 262.421 22.0234Z" fill="#1F41BB"/>
<path d="M118.286 219.119C119 218.754 119.721 218.416 120.451 218.108C120.989 203.973 121.852 187.589 122.987 170.156L120.894 169.918C119.649 188.783 118.748 205.878 118.286 219.119Z" fill="#1F41BB"/>
<path d="M236.42 22.4367C216.7 17.9804 163.847 11.0892 144.108 14.1635C140.152 13.8807 136.685 17.052 136.32 21.1876C136.008 22.9431 135.698 24.7619 135.388 26.6419L137.536 26.8043C137.825 24.9855 138.116 23.2047 138.411 21.4661C138.675 18.5079 140.975 16.2566 143.636 16.2566C146.353 16.2566 155.865 14.0812 188.445 17.4002C217.489 20.3605 235.774 24.4517 236.093 24.5171C238.928 24.7703 241.009 27.5112 240.726 30.7247C240.931 89.6689 229.157 175.195 222.54 233.766C222.18 236.963 219.652 239.203 216.892 238.955C215.649 238.853 207.038 241.524 170.517 238.252C163.164 237.594 156.929 236.887 151.658 236.178C150.356 236.735 149.035 237.267 147.712 237.775C172.141 241.303 205.536 243.126 216.856 241.067C220.892 241.341 224.173 238.047 224.638 234.005C224.682 233.614 230.159 194.4 236.536 135.333C242.916 76.2242 242.838 31.1614 242.834 30.8112C243.216 26.5364 240.279 22.768 236.422 22.4304L236.42 22.4367Z" fill="#1F41BB"/>
<path d="M190.317 12.6828C191.557 12.6828 192.564 11.6767 192.564 10.4357C192.564 9.19459 191.557 8.18854 190.317 8.18854C189.076 8.18854 188.07 9.19459 188.07 10.4357C188.07 11.6767 189.076 12.6828 190.317 12.6828Z" fill="#1F41BB"/>
<path d="M170.726 201.644C164.925 201.644 159.906 205.037 157.542 209.944C158.41 209.826 159.277 209.712 160.142 209.601C162.36 206.09 166.276 203.754 170.726 203.754C177.625 203.754 183.238 209.366 183.238 216.264C183.238 225.28 173.958 231.308 165.754 227.744C165.183 228.261 164.594 228.759 163.991 229.238C173.631 234.26 185.348 227.261 185.348 216.264C185.348 208.202 178.788 201.644 170.726 201.644Z" fill="#1F41BB"/>
<path d="M203.837 229.426C198.672 229.426 194.469 225.223 194.469 220.055C194.469 214.888 198.672 210.687 203.837 210.687C209.003 210.687 213.208 214.89 213.208 220.055C213.208 225.221 209.005 229.426 203.837 229.426ZM203.837 212.797C199.835 212.797 196.579 216.053 196.579 220.055C196.579 224.058 199.835 227.316 203.837 227.316C207.84 227.316 211.098 224.06 211.098 220.055C211.098 216.051 207.842 212.797 203.837 212.797Z" fill="#1F41BB"/>
<path d="M132.259 214.546C131.316 210.039 134.761 205.794 139.365 205.794C142.876 205.794 145.813 208.301 146.482 211.618C147.176 211.5 147.87 211.384 148.565 211.27C147.729 206.955 143.923 203.684 139.367 203.684C133.415 203.684 128.931 209.2 130.216 215.068C130.896 214.89 131.579 214.715 132.263 214.546H132.259Z" fill="#1F41BB"/>
<path d="M154.848 193.57L132.86 191.787C131.461 191.673 131.647 189.557 133.031 189.684L154.932 191.465C156.268 191.572 156.188 193.57 154.848 193.57Z" fill="#1F41BB"/>
<path d="M176.435 195.326L164.081 194.326C162.689 194.214 162.86 192.1 164.252 192.222L176.52 193.218C177.855 193.325 177.775 195.326 176.435 195.326Z" fill="#1F41BB"/>
<path d="M190.998 196.51L182.772 195.845C182.191 195.799 181.759 195.288 181.805 194.708C181.852 194.128 182.362 193.689 182.942 193.742L191.083 194.404C192.418 194.512 192.338 196.51 190.998 196.51Z" fill="#1F41BB"/>
<path d="M215.508 198.501L196.78 196.982C195.379 196.868 195.571 194.748 196.95 194.879L215.592 196.394C216.928 196.501 216.848 198.501 215.508 198.501Z" fill="#1F41BB"/>
<path d="M89.2595 166.219C84.4235 165.8 80.7247 163.086 80.9947 160.071C80.9842 159.909 80.4293 131.888 83.5309 92.1087C86.6347 52.2851 92.7051 28.9952 92.7663 28.7652C92.8739 27.3853 94.0112 26.0623 95.9355 25.2162C97.653 24.463 99.8474 24.157 102.122 24.3617C126.456 23.351 194.193 30.9321 218.888 34.8187C223.81 35.2576 227.509 37.9689 227.239 40.9841C227.265 41.0853 229.862 70.4794 225.062 108.649C220.27 146.738 215.531 171.965 215.485 172.216C215.229 175.115 211.146 177.117 206.19 176.7C183.607 177.818 107.268 170.606 89.2616 166.217L89.2595 166.219ZM102.075 26.4674C100.322 26.3197 98.3852 26.4463 96.7858 27.1489C95.6148 27.6638 94.9037 28.3854 94.8383 29.1302C94.7476 29.5353 88.7236 52.6607 85.6367 92.2733C82.5435 131.941 83.0963 159.866 83.1026 160.143C82.9591 161.808 85.5987 163.785 89.6077 164.143C119.806 170.317 189.764 175.56 206.144 174.59C206.196 174.586 206.249 174.588 206.302 174.59C210.307 174.948 213.259 173.474 213.398 171.925C213.459 171.572 218.187 146.405 222.969 108.385C227.739 70.4562 225.165 41.2773 225.14 40.9862C225.277 39.2475 222.639 37.2705 218.631 36.9118C192.714 32.9894 126.342 25.404 102.078 26.4653L102.075 26.4674Z" fill="#1F41BB"/>
<path d="M159.494 145.736C158.56 145.377 157.623 144.951 156.713 144.487C160.674 153.606 162.13 163.54 163.628 173.602C163.706 174.126 164.157 174.501 164.67 174.501C165.326 174.501 165.809 173.921 165.715 173.292C164.259 163.544 162.984 154.598 159.494 145.736Z" fill="#1F41BB"/>
<path d="M151.096 123.579C153.107 109.058 157.669 95.9109 171.033 90.0325C170.744 89.3172 170.236 88.6715 169.529 88.1863C170.249 86.4687 169.006 83.5042 167.231 82.8016C169.801 79.7864 167.563 76.4063 164.505 76.3999C164.9 73.351 161.325 70.838 158.623 70.7811C158.886 65.9302 154.761 62.7885 150.82 64.4511C149.929 61.1744 146.256 59.9485 143.045 61.8052C141.177 56.8721 134.774 55.9332 131.575 60.1299C128.186 56.4185 122.648 57.1823 120.884 61.4043C117.037 59.0602 112.269 61.6681 112.159 66.1708C109.03 65.7235 105.747 68.5234 106.017 71.7327C101.79 72.2623 99.2331 76.7713 101.341 80.7423C98.4862 81.3288 97.2856 83.7849 98.3406 85.8927C95.9205 86.5426 95.2917 89.1125 96.5028 90.9292C94.1375 92.2627 93.0382 94.9339 94.5701 97.1241C89.4428 99.31 89.4281 105.946 93.9413 107.433C90.0843 112.801 95.8276 119.452 101.151 116.386C101.457 118.312 102.586 120.444 104.483 120.95C100.993 122.686 97.581 125.204 93.7303 128.698C89.3542 132.671 83.2733 138.87 81.024 146.81C80.8658 147.371 81.1907 147.953 81.752 148.112C84.6806 148.947 80.7645 141.957 97.9692 127.816C99.404 131.711 101.124 135.918 104.173 139.159C108.211 143.451 114.976 146.213 120.683 147.215L116.826 168.933C116.725 169.507 117.109 170.053 117.683 170.155C118.246 170.258 118.803 169.88 118.904 169.298L122.772 147.515C133.851 148.764 143.751 144.394 149.712 137.114C149.721 136.965 150.109 132.483 150.32 130.327C147.695 127.339 144.775 124.83 141.641 122.874C143.905 122.034 146.091 120.893 148.142 119.446C148.545 121.404 149.674 122.802 151.098 123.583L151.096 123.579ZM109.369 118.015C109.851 116.696 109.808 115.321 109.635 114.061C110.859 115.572 112.203 116.924 113.64 118.116C107.289 119.04 108.587 120.159 109.369 118.015ZM134.47 124.514C130.298 130.019 118.493 130.664 118.596 121.414C123.504 123.978 129.032 125.031 134.47 124.514ZM148.666 131.635C149.102 132.129 149.531 132.639 149.951 133.162C146.003 139.364 139.863 143.366 133.077 144.898C122.348 147.318 110.798 143.122 105.704 137.707C102.774 134.593 101.124 130.316 99.7079 126.436C100.172 126.086 100.651 125.74 101.141 125.4C104.274 132.924 112.091 136.311 120.101 137.832C130.767 139.855 140.698 138.878 148.666 131.635ZM147.229 130.09C143.893 133.124 140.238 135.289 134.44 136.23C126.479 137.526 115.537 135.528 109.724 131.966C106.477 129.979 104.09 127.246 102.94 124.22C106.991 121.731 110.887 120.399 116.13 119.958C116.271 120.051 116.415 120.144 116.558 120.235C115.298 134.264 134.09 132.527 137.067 124.142C137.69 124.024 138.31 123.883 138.926 123.722C141.89 125.347 144.684 127.489 147.227 130.088L147.229 130.09ZM111.91 113.487C115.324 111.784 115.391 107.499 112.562 105.357C115.535 102.848 115.364 99.3185 113.191 97.5524C114.974 95.721 115.151 93.9022 114.416 92.4484C116.725 91.6129 118.516 90.1527 118.721 87.6883C121.43 88.3065 123.869 86.4708 123.671 83.4198C124.893 83.5506 126.264 83.3945 126.813 83.1708C127.925 82.7193 128.861 81.7825 129.421 80.6684C131.014 81.9239 133.419 82.291 135.337 81.3795C136.409 83.4768 139.059 84.6668 141.338 84.0676C141.901 85.8674 143.623 87.2663 145.454 87.5174C145.545 88.8129 146.427 90.2224 146.976 90.6908C147.482 91.1233 148.014 91.3723 148.558 91.5158C147.22 93.5224 147.385 95.9636 148.784 97.7888C143.713 99.3944 142.644 104.511 145.716 107.231C141.838 110.219 143.03 115.886 147.484 117.312C136.516 125.493 121.029 123.938 111.91 113.487Z" fill="#1F41BB"/>
<path d="M124.591 97.909C122.462 96.7295 119.884 96.3729 117.512 96.9279C116.944 97.0587 116.377 96.7084 116.244 96.1408C116.111 95.5733 116.463 95.0057 117.031 94.8728C119.903 94.1976 123.032 94.6322 125.612 96.0607C126.832 96.7359 125.811 98.5821 124.591 97.909Z" fill="#1F41BB"/>
<path d="M145.507 102.648C143.712 101.64 141.595 101.182 139.544 101.351C138.962 101.401 138.454 100.967 138.405 100.386C138.357 99.806 138.789 99.2954 139.369 99.2469C141.838 99.0443 144.383 99.595 146.541 100.808C147.754 101.49 146.72 103.33 145.507 102.648Z" fill="#1F41BB"/>
<path d="M123.751 105.024C123.424 104.541 123.553 103.884 124.034 103.56C124.517 103.232 125.173 103.361 125.498 103.842C127.646 107.024 132.109 107.693 135.099 105.235C135.548 104.863 136.213 104.929 136.584 105.378C136.956 105.828 136.89 106.492 136.441 106.864C132.51 110.098 126.602 109.244 123.751 105.024Z" fill="#1F41BB"/>
<path d="M194.326 147.259C186.582 149.817 177.842 149.209 170.331 145.156C156.411 148.312 145.427 158.887 140.971 172.092C140.785 172.644 142.821 173.206 142.971 172.767C143.034 172.577 143.102 172.385 143.169 172.195C194.159 176.617 197.676 177.561 209.524 174.908C210.235 174.748 210.956 174.571 211.566 174.172C212.891 173.305 213.505 172.106 213.642 170.741C214.421 170.904 215.081 170.184 214.873 169.429C212.077 159.318 204.198 151.365 194.326 147.259Z" fill="#1F41BB"/>
<path d="M171.812 122.682C170.664 122.682 170.346 121.096 171.405 120.652C173.171 119.914 175.034 119.486 176.946 119.374C177.52 119.357 178.026 119.785 178.06 120.365C178.094 120.946 177.648 121.446 177.068 121.48C173.986 121.657 172.291 122.682 171.812 122.682Z" fill="#1F41BB"/>
<path d="M200.822 126.532C200.601 126.532 200.375 126.463 200.185 126.317C198.805 125.269 197.269 124.471 195.617 123.95C195.062 123.775 194.754 123.182 194.929 122.625C195.104 122.07 195.697 121.76 196.254 121.937C198.138 122.532 199.89 123.441 201.464 124.638C202.266 125.247 201.829 126.532 200.822 126.532Z" fill="#1F41BB"/>
<path d="M179.613 130.031C179.288 129.548 179.414 128.892 179.898 128.567C180.381 128.24 181.037 128.369 181.362 128.852C183.25 131.654 187.314 131.738 189.352 129.137C189.713 128.679 190.376 128.599 190.834 128.957C191.292 129.316 191.374 129.981 191.013 130.439C188.07 134.194 182.28 133.988 179.613 130.031Z" fill="#1F41BB"/>
<path d="M215.862 106.971C211.159 96.4109 198.793 86.9245 184.903 86.3611C175.365 85.9686 165.676 89.9692 159.629 97.3562C151.09 107.79 149.871 123.3 148.693 136.551C148.44 139.397 148.862 140.792 151.497 142.6C153.527 143.993 158.743 147.291 163.303 147.825C163.87 147.89 164.383 147.498 164.47 146.936C164.672 145.607 164.896 144.282 165.132 142.959C175.693 151.403 190.304 152.085 201.516 145.014C201.293 146.983 201.04 148.981 200.681 150.926C200.561 151.574 201.059 152.173 201.717 152.173C203.084 152.173 206.926 151.572 210.315 150.386C213.003 149.445 213.744 148.384 214.349 145.755C215.276 141.754 216.158 137.669 216.966 133.616C218.962 123.6 219.54 115.236 215.862 106.971ZM201.825 142.267C190.821 150.135 175.849 149.473 165.567 140.577L171.458 109.124C181.012 108.739 203.755 112.949 205.032 113.137C203.295 135.912 202.928 132.403 201.825 142.267ZM212.296 145.28C212.087 146.173 211.898 146.896 211.469 147.379C210.319 148.681 204.738 149.724 202.991 149.935C203.683 145.618 203.945 141.239 204.639 137.045C205.992 128.9 207.279 115.185 207.304 105.397C207.304 104.815 206.834 104.34 206.251 104.34C205.669 104.34 205.194 104.813 205.194 105.393C205.19 107.286 205.091 108.986 205.044 111.008C203.569 110.788 202.095 110.531 200.639 110.267L201.649 103.268C201.734 102.692 201.333 102.156 200.755 102.074C200.187 101.996 199.645 102.391 199.561 102.969L198.563 109.887C196.37 109.482 194.125 109.067 191.842 108.735C192.385 105.606 192.87 102.437 193.283 99.2952C193.359 98.7192 192.952 98.1896 192.374 98.1115C191.79 98.0398 191.266 98.4407 191.19 99.0209C190.777 102.161 190.294 105.33 189.749 108.459C187.913 108.237 183.029 107.76 180.609 107.539L181.887 98.2698C181.968 97.6938 181.565 97.1621 180.986 97.0819C180.408 97.0017 179.877 97.4047 179.799 97.9828L178.505 107.353C176.247 107.168 174.353 106.954 171.911 107.007C172.289 105.326 172.762 103.661 173.327 102.036C173.517 101.485 173.226 100.884 172.675 100.694C172.125 100.504 171.523 100.793 171.331 101.344C169.635 106.237 169.409 108.472 163.748 138.811C163.328 141.06 162.91 143.311 162.545 145.571C158.69 144.772 154.439 142.064 152.692 140.866C150.362 139.267 150.628 138.636 150.902 135.509C152.019 122.826 153.276 108.455 161.258 98.7002C172.04 85.5319 194.062 84.2933 208.389 99.6687C220.259 112.415 216.647 126.491 212.292 145.286L212.296 145.28Z" fill="#1F41BB"/>
<path d="M283.082 47.6033C288.192 46.6138 294.995 44.1683 307.671 39.5833C308.864 39.1529 309.98 38.8659 310.798 37.8531C311.115 37.4607 311.092 36.6695 310.461 36.5724C308.214 36.2264 305.715 37.8067 303.66 38.6275C290.861 43.74 287.707 44.5565 282.862 47.0843C282.563 47.2404 282.78 47.6624 283.082 47.6033Z" fill="#1F41BB"/>
<path d="M284.265 65.9543C292.231 66.2813 296.387 65.6821 319.017 65.2432C320.544 65.2137 322.336 65.4732 323.724 64.76C324.34 64.4435 324.382 63.378 323.724 63.0742C322.357 62.4412 320.755 62.726 319.28 62.7661C298.518 63.3147 290.182 63.684 284.268 64.4752C283.348 64.5976 283.282 65.9184 284.268 65.9585L284.265 65.9543Z" fill="#1F41BB"/>
<path d="M284.291 83.1521C284.447 83.9834 285.39 84.3105 286.08 84.6586C288.382 85.8191 302.977 93.0078 306.112 94.2569C307.323 94.7401 308.144 92.7504 306.998 92.1554C304.118 90.6594 289.017 84.2767 286.65 83.3062C285.932 83.0129 285.099 82.5276 284.369 82.958C284.299 83.0002 284.274 83.0762 284.289 83.1542L284.291 83.1521Z" fill="#1F41BB"/>
</svg>
