<svg width="380" height="360" viewBox="0 0 380 360" fill="none" xmlns="http://www.w3.org/2000/svg">
<path d="M379.825 213.842C371.925 215.445 356.564 214.623 352.004 214.022C351.864 212.419 352.104 197.051 351.904 193.584C351.904 193.404 351.604 193.304 351.604 193.304C340.289 192.507 328.942 192.279 317.604 192.623C317.604 179.158 317.604 165.533 317.304 151.928C317.305 151.878 317.295 151.829 317.275 151.783C317.254 151.738 317.223 151.698 317.184 151.667C317.145 151.636 317.1 151.615 317.051 151.604C317.002 151.594 316.952 151.595 316.904 151.607C296.083 150.886 280.903 151.187 280.783 151.407C280.563 152.85 280.203 166.354 280.323 169.44C274.213 162.71 266.83 157.262 258.603 153.411C256.652 152.782 254.835 151.797 253.243 150.505C252.789 150.099 252.446 149.585 252.243 149.011C252.04 148.437 251.985 147.821 252.083 147.219C253.823 140.567 264.203 137.201 267.243 134.897C269.119 133.642 270.728 132.027 271.977 130.146C273.227 128.265 274.092 126.154 274.523 123.937C274.642 121.796 274.036 119.678 272.803 117.925C271.503 115.922 273.563 115.541 274.983 114.299C273.668 114.32 272.373 114.62 271.183 115.18C271.64 114.455 271.9 113.622 271.938 112.765C271.977 111.908 271.793 111.056 271.403 110.291C271.503 110.933 271.446 111.589 271.237 112.203C271.028 112.817 270.673 113.371 270.203 113.818C270.313 112.19 269.822 110.578 268.823 109.29C263.683 102.577 252.823 101.135 244.963 100.694C245.163 84.6644 244.963 42.8676 244.963 38.2191C262.963 39.0205 280.963 39.9022 299.124 40.6235C297.843 68.8553 297.523 97.2675 298.344 125.64C298.346 125.688 298.36 125.736 298.385 125.778C298.409 125.819 298.444 125.855 298.485 125.88C298.527 125.906 298.573 125.921 298.622 125.925C298.67 125.928 298.719 125.92 298.764 125.9C307.844 126.241 330.384 127.022 332.584 127.082C333.504 139.525 333.764 152.188 333.584 164.832C333.589 164.924 333.629 165.01 333.696 165.074C333.763 165.137 333.852 165.172 333.944 165.172C342.994 165.754 352.07 165.794 361.125 165.292C361.425 165.292 361.445 164.792 361.125 164.792C356.544 164.792 338.664 164.792 334.304 164.491C334.634 151.892 334.287 139.284 333.264 126.722C325.044 125.399 301.484 125.419 298.944 125.359C298.384 97.0872 298.524 68.655 299.824 40.2829C299.824 40.1906 299.788 40.1018 299.725 40.0347C299.662 39.9676 299.576 39.9273 299.484 39.9222C299.284 39.9222 244.703 37.638 244.503 37.7382C244.43 37.7527 244.366 37.7934 244.321 37.8526C244.277 37.9117 244.256 37.9851 244.263 38.0588V100.714C240.063 101.235 241.663 104.942 240.603 107.005C240.143 107.867 239.763 107.506 239.023 108.007C237.022 109.31 237.202 118.026 237.282 120.33C235.282 125.519 233.722 133.013 237.482 137.141C238.142 137.862 239.303 138.463 239.663 139.405C239.729 139.724 239.726 140.054 239.654 140.373C239.581 140.691 239.441 140.99 239.243 141.248C238.479 142.665 237.307 143.818 235.881 144.557C234.454 145.297 232.837 145.589 231.242 145.396C218.682 144.394 213.422 146.338 210.682 147.119C202.447 150.859 194.686 155.568 187.562 161.145C187.227 161.532 187.003 162.003 186.915 162.508C186.827 163.013 186.878 163.532 187.062 164.01C185.062 164.832 183.062 166.014 181.182 166.956C180.002 163.149 174.641 144.775 174.341 143.973C175.555 143.213 176.587 142.194 177.361 140.988C179.362 140.988 179.802 141.108 179.942 140.807C181.482 137.381 182.482 133.714 184.142 130.328C185.982 130.328 204.882 129.366 212.462 128.705C212.462 128.705 223.142 130.709 223.682 130.889C223.652 131.308 223.717 131.728 223.873 132.117C224.029 132.507 224.271 132.856 224.581 133.138C224.891 133.42 225.262 133.627 225.664 133.744C226.066 133.862 226.489 133.886 226.902 133.815C229.142 133.554 230.462 131.53 231.362 129.687C232.453 127.595 233.035 125.275 233.062 122.915C233.062 118.306 230.622 116.743 228.742 116.904C228.249 116.881 227.762 117.028 227.362 117.319C226.962 117.61 226.673 118.029 226.542 118.507C225.182 118.266 216.682 116.623 216.542 116.503C211.822 111.534 199.582 100.754 199.582 100.714C199.262 89.353 199.682 58.9972 199.802 55.5309C199.797 55.4368 199.758 55.3478 199.691 55.2812C199.625 55.2146 199.536 55.175 199.442 55.1702C176.461 55.611 170.801 54.4288 170.821 55.4708C171.081 61.2614 171.041 78.6533 170.941 78.5932C156.121 68.7552 132.401 46.2739 132.801 46.5343C132.561 45.7529 131.421 42.6272 131.081 41.8457C131.081 41.7255 119.821 38.2792 117.441 37.8384C116.352 37.8254 115.28 38.1094 114.34 38.6599C111.367 40.6696 108.835 43.2675 106.9 46.2939C89.18 70.0976 82.5199 97.4879 86.2 121.933C86.5822 125.367 87.4161 128.736 88.68 131.951C89.1853 132.97 89.9365 133.847 90.8656 134.501C91.7946 135.155 92.8721 135.567 94.0001 135.698C96.0001 136.139 105.7 137.201 108 136.64C109.381 135.817 110.716 134.921 112 133.955C118.001 134.075 134.701 133.194 137.101 133.073C136.521 144.294 136.601 173.027 136.721 176.132C127.301 175.932 103.34 175.932 100.72 175.852C100.72 170.442 101.16 164.531 100.92 159.041C100.6 158.54 100 158.52 99.4802 158.48C94.9801 158.219 75.9998 157.618 71.6997 157.999C70.8397 157.999 71.8797 157.739 71.6997 181.081H38.5992C38.5037 181.081 38.4121 181.119 38.3446 181.187C38.2771 181.255 38.2392 181.346 38.2392 181.442C38.2392 196.53 37.9592 211.758 38.2392 226.966H9.43872C9.36976 226.966 9.30363 226.993 9.25487 227.042C9.2061 227.091 9.17871 227.157 9.17871 227.226C9.17871 227.295 9.2061 227.362 9.25487 227.41C9.30363 227.459 9.36976 227.487 9.43872 227.487C28.959 227.727 48.5794 227.928 68.1797 227.847C68.5597 227.847 68.6797 229.23 68.5797 202.461C80.5799 202.461 92.5801 202.761 104.72 202.461C104.72 211.477 104.46 220.494 104.58 229.51C101.036 227.853 97.0094 227.554 93.2601 228.669C84.54 230.973 86.24 237.525 86 238.507C85.56 239.869 84.28 239.509 82.8199 239.889C81.16 240.345 79.652 241.238 78.4527 242.474C77.2534 243.711 76.4064 245.247 75.9998 246.922C71.9998 246.742 69.4797 246.922 67.5397 250.389C66.4777 249.176 65.1558 248.22 63.6729 247.592C62.19 246.964 60.5845 246.679 58.9765 246.76C57.3684 246.841 55.7995 247.285 54.3869 248.059C52.9744 248.833 51.7548 249.917 50.8194 251.23C47.2993 250.068 44.1793 253.234 42.6593 256.42C40.0992 261.89 44.3593 264.915 44.6593 265.717L33.4591 265.577C33.1791 265.577 33.1791 265.997 33.4591 266.017C37.2792 266.017 73.2998 267.4 159.461 266.158C149.941 287.036 148.701 322.261 148.141 345.103C149.26 345.595 150.418 345.997 151.601 346.305C151.601 347.848 151.721 349.451 151.721 351.474C149.941 352.496 144.361 355.822 144.061 356.203C143.761 356.584 143.521 358.006 144.421 358.207C148.791 358.324 153.164 358.203 157.521 357.846C157.263 354.169 157.739 350.477 158.921 346.986C161.407 347.027 163.893 346.9 166.361 346.605C179.062 318.153 180.762 303.526 185.102 293.748C189.402 290.522 200.022 279.081 205.002 274.513C205.78 266.937 205.887 259.306 205.322 251.711C205.322 251.371 205.742 251.07 206.062 251.711C206.702 253.054 207.442 257.923 206.742 271.107C206.462 276.557 204.562 287.577 209.302 302.184C213.531 313.658 220.136 324.105 228.682 332.84L245.223 349.551C246.341 349.348 247.444 349.067 248.523 348.709C248.623 348.83 251.663 352.717 251.823 352.717C251.802 353.833 251.455 354.919 250.826 355.841C250.197 356.763 249.313 357.481 248.283 357.906C247.683 358.147 247.983 359.91 248.443 359.91C250.574 360.03 252.711 360.03 254.843 359.91C256.521 358.012 258.071 356.004 259.483 353.899C259.483 353.578 255.483 348.309 254.763 345.564C255.558 345.025 256.314 344.429 257.023 343.78C249.619 326.72 243.091 309.292 237.462 291.564C241.123 285.173 247.663 272.79 248.583 265.857C292.343 267.861 329.364 270.406 372.065 266.118C372.385 266.118 372.385 265.597 372.065 265.617L367.005 266.058C365.858 262.989 364.05 260.211 361.709 257.922C359.369 255.633 356.554 253.889 353.464 252.813C348.524 251.19 347.624 253.074 346.144 251.05C344.214 248.09 341.361 245.852 338.03 244.685C334.698 243.518 331.075 243.488 327.724 244.598C328.444 236.724 322.784 229.35 313.964 230.352C314.939 227.253 314.799 223.91 313.567 220.904C312.335 217.898 310.091 215.421 307.224 213.902C307.954 211.585 308.04 209.113 307.472 206.751C306.905 204.39 305.706 202.227 304.004 200.497C303.098 199.292 301.847 198.392 300.418 197.916C298.989 197.44 297.449 197.411 296.003 197.832C293.925 194.036 291.371 190.521 288.403 187.373C289.064 186.516 289.672 185.62 290.223 184.688C287.75 179.273 284.546 174.224 280.703 169.681C280.703 169.681 281.303 153.09 281.343 151.647C290.543 151.447 314.084 152.188 316.644 152.148C316.644 162.728 316.744 189.898 316.844 192.903C316.848 192.965 316.867 193.025 316.899 193.078C316.931 193.131 316.976 193.175 317.029 193.206C317.083 193.238 317.143 193.256 317.204 193.259C317.266 193.262 317.328 193.25 317.384 193.224C333.984 192.703 347.524 193.705 351.284 193.765C351.284 197.251 350.664 212.86 351.284 214.383C351.284 214.563 358.484 216.046 372.865 215.324C374.425 215.164 381.165 214.984 379.825 213.842ZM157.021 351.294C155.441 351.113 153.848 351.073 152.261 351.174C152.261 350.974 152.081 347.167 152.021 346.405C154.082 346.721 156.158 346.928 158.241 347.026C158.001 347.667 157.061 351.214 157.021 351.294ZM254.183 346.004L256.323 350.012C255.683 350.372 253.603 351.715 252.323 352.476C252.323 352.276 249.143 348.469 249.063 348.469C250.822 347.762 252.533 346.939 254.183 346.004ZM231.682 146.438C232.355 146.418 233.024 146.338 233.682 146.197C234.825 146.112 235.936 145.781 236.94 145.228C237.944 144.675 238.818 143.912 239.503 142.992C244.263 136.119 234.402 139.786 236.602 126.722C237.703 121.394 239.683 116.288 242.463 111.614C244.005 113.583 245.936 115.213 248.135 116.403C250.333 117.592 252.753 118.315 255.243 118.527C256.883 118.527 255.383 122.374 256.063 125.68C256.563 128.024 259.143 126.301 260.643 127.683C261.104 128.13 261.428 128.699 261.577 129.323C261.726 129.948 261.693 130.602 261.483 131.209C261.272 131.815 260.893 132.349 260.39 132.747C259.887 133.145 259.281 133.39 258.643 133.454C257.615 135.863 256.733 138.332 256.003 140.848C253.554 142.514 251.853 145.074 251.263 147.981C251.426 148.932 251.809 149.832 252.382 150.608C252.955 151.384 253.702 152.015 254.563 152.449C251.669 155.621 247.725 157.636 243.463 158.119C241.143 158.518 238.759 158.283 236.562 157.438C232.442 155.615 230.942 150.846 231.682 146.438ZM173.481 143.833C173.641 144.855 179.342 163.75 180.542 167.717C181.402 168.418 185.182 165.292 187.202 164.711C188.207 172.478 191.413 179.794 196.442 185.79C186.442 194.085 179.142 195.147 177.921 195.187C176.713 195.242 175.51 195.007 174.41 194.501C173.311 193.996 172.348 193.235 171.601 192.282C168.654 188.713 166.83 184.347 166.361 179.739C164.561 168.258 165.121 156.236 165.301 144.514C165.585 144.618 165.894 144.633 166.186 144.558C166.479 144.483 166.742 144.321 166.941 144.094C167.981 145.857 169.301 145.536 170.021 144.354C171.541 146.558 173.661 143.392 174.161 140.848C174.161 140.848 175.841 140.988 176.661 141.008C175.881 142.551 173.421 143.452 173.481 143.833ZM167.801 137.481C167.801 137.201 168.401 136.86 168.641 136.84C168.891 136.848 169.129 136.946 169.312 137.115C169.496 137.284 169.613 137.514 169.641 137.762C169.641 138.082 170.121 138.243 170.261 137.942C170.375 137.721 170.539 137.529 170.74 137.383C170.941 137.236 171.174 137.14 171.42 137.101C171.665 137.062 171.917 137.081 172.153 137.158C172.39 137.234 172.605 137.366 172.781 137.542C175.121 139.545 172.001 145.256 170.781 144.334C170.541 144.154 170.141 144.033 170.301 142.631C170.301 142.29 169.781 142.35 169.661 142.631C169.661 144.214 169.041 144.635 168.561 144.635C168.081 144.635 167.761 144.214 167.541 143.893C167.422 143.399 167.422 142.884 167.541 142.39C167.541 141.99 166.981 141.809 166.901 142.23C166.801 142.741 166.626 143.234 166.381 143.693C166.307 143.785 166.21 143.856 166.099 143.898C165.989 143.94 165.869 143.951 165.752 143.931C165.636 143.91 165.527 143.859 165.437 143.782C165.347 143.705 165.279 143.605 165.241 143.492C164.826 141.555 164.894 139.546 165.441 137.642C165.507 137.437 165.631 137.255 165.798 137.12C165.965 136.985 166.168 136.901 166.381 136.88C166.681 136.88 167.101 137.381 167.101 137.441C167.161 137.962 167.821 137.962 167.801 137.481ZM179.302 140.186C177.862 140.186 176.121 140.186 174.241 140.327C174.661 136.66 171.501 135.618 170.081 137.041C169.955 136.801 169.769 136.598 169.543 136.45C169.316 136.302 169.056 136.214 168.787 136.194C168.517 136.174 168.247 136.223 168.001 136.336C167.755 136.449 167.542 136.622 167.381 136.84C167.261 136.697 167.112 136.58 166.946 136.496C166.779 136.411 166.597 136.361 166.411 136.348C166.224 136.335 166.037 136.359 165.861 136.42C165.684 136.48 165.521 136.575 165.381 136.7C164.601 137.341 164.541 138.704 164.421 139.986H157.821C157.421 138.824 155.301 133.514 154.921 132.172L183.202 130.428C182.622 131.951 180.122 138.523 179.302 140.186ZM232.002 125.72C231.262 128.545 229.762 133.234 226.002 133.113C225.536 133.028 225.116 132.78 224.815 132.413C224.515 132.046 224.355 131.584 224.362 131.11C224.727 131.166 225.098 131.166 225.462 131.11C227.083 129.921 228.323 128.287 229.034 126.405C229.744 124.523 229.893 122.475 229.462 120.51C229.462 120.13 229.082 118.927 228.822 118.887L226.822 118.567C229.082 115.701 233.622 118.667 232.002 125.72ZM171.521 55.8114C171.741 55.8114 190.062 56.0518 199.102 56.0117C198.462 70.6787 198.322 85.546 198.942 100.353C190.162 93.0598 180.722 86.0269 171.461 79.034C171.481 78.8537 171.681 59.8187 171.521 55.8114ZM90.7201 133.314C88.72 131.21 88.16 128.044 87.64 125.299C83.3799 103.259 88.06 80.0559 98.9202 60.52C100.64 57.3943 108.6 44.0698 114.6 39.4814C117.04 37.5979 120.141 40.0625 121.521 42.6272C123.921 47.0954 124.281 66.8116 123.841 73.2434C120.278 71.9171 116.391 71.735 112.72 72.7224C93.9001 78.1324 95.5001 106.905 116.72 107.025C115.28 111.033 109.28 125.68 98.7202 133.534C97.5824 134.466 96.148 134.956 94.6792 134.916C93.2103 134.875 91.805 134.307 90.7201 133.314ZM107.56 136.159C107.18 136.039 99.2002 135.818 96.1602 135.518C98.9047 134.553 101.347 132.881 103.24 130.669C115.76 118.406 121.421 98.3495 123.821 80.9976C125.395 69.1504 125.172 57.1328 123.161 45.3522C122.723 43.0329 121.626 40.8898 120.001 39.1808C121.421 39.6417 130.161 42.3467 130.661 42.3867C136.961 58.5564 137.381 76.9302 133.501 93.9214C132.701 97.1072 131.661 100.273 130.641 103.399C126.381 117.104 119.861 128.765 107.56 136.159ZM112.58 133.494C135.981 115.1 140.581 70.8189 133.161 47.5161C158.121 73.6842 191.162 91.1162 216.002 117.144C216.162 117.304 226.602 119.268 228.702 119.609C229.244 121.568 229.199 123.644 228.573 125.578C227.947 127.512 226.768 129.22 225.182 130.489C224.302 130.128 212.622 128.044 212.462 128.024C205.862 128.084 115.6 133.334 112.58 133.494ZM68.1597 201.719C68.101 201.719 68.0433 201.735 67.9922 201.764C67.9411 201.793 67.8983 201.834 67.8681 201.885C67.8379 201.935 67.8213 201.993 67.8198 202.051C67.8183 202.11 67.8321 202.168 67.8597 202.22C67.8597 210.335 67.5797 218.871 67.8597 227.186C60.4996 227.006 41.0392 226.946 38.9992 226.946C39.2392 215.344 38.9992 185.029 38.9992 181.763H72.0598C72.1174 181.764 72.1746 181.751 72.2259 181.725C72.2772 181.698 72.3209 181.659 72.3529 181.611C72.3849 181.563 72.4042 181.508 72.4089 181.45C72.4136 181.392 72.4035 181.335 72.3798 181.282C72.5998 173.968 72.3798 166.254 72.2198 158.7C79.4799 158.42 97.7002 159.362 99.5602 159.482C100.94 159.482 100.1 158.46 100.14 176.413C100.14 176.573 100.48 176.774 100.56 176.774C112.56 177.615 124.781 176.774 137.001 176.914C138.381 177.375 136.861 173.247 137.681 133.173L154.321 132.232C154.801 133.554 156.941 139.044 157.301 140.567C157.329 140.654 157.381 140.731 157.452 140.788C157.524 140.845 157.61 140.88 157.701 140.888H164.561C164.374 142.078 164.562 143.297 165.101 144.374C163.241 173.167 165.661 180.44 165.861 181.162C163.731 180.48 161.439 180.501 159.322 181.222C157.204 181.944 155.374 183.327 154.101 185.169C152.724 184.161 151.078 183.585 149.374 183.514C147.669 183.443 145.982 183.881 144.526 184.771C143.07 185.661 141.91 186.964 141.193 188.516C140.477 190.067 140.236 191.796 140.501 193.484C140.501 194.346 139.701 194.526 138.961 194.566C130.641 194.206 125.361 200.577 126.481 206.829C125.248 207.786 124.386 209.144 124.043 210.668C123.7 212.193 123.897 213.789 124.601 215.184C121.821 216.386 118.601 218.31 118.601 221.716C118.497 222.7 118.775 223.687 119.379 224.471C119.982 225.254 120.864 225.775 121.841 225.924C122.781 226.044 123.841 225.924 124.641 226.585C125.014 227.351 125.604 227.99 126.336 228.425C127.068 228.859 127.911 229.069 128.761 229.03C128.798 229.659 128.699 230.289 128.471 230.877C128.244 231.465 127.892 231.996 127.441 232.436C127.441 232.436 125.301 231.935 124.361 231.574C123.458 231.236 122.463 231.236 121.561 231.574C120.505 231.984 119.349 232.058 118.25 231.786C117.151 231.513 116.163 230.907 115.42 230.051C114.24 228.048 112.12 224.662 109.42 226.846C109.096 227.13 108.842 227.487 108.68 227.887C108.68 231.514 106.58 230.372 105.56 229.891C105.82 220.634 105.76 211.397 105.78 202.14C105.5 201.599 107.32 201.639 68.1597 201.719ZM160.001 265.176C157.141 265.176 80.7399 266.078 45.3393 265.717C44.6993 263.713 41.8193 261.93 42.8993 258.003C43.9793 254.076 47.3193 250.609 51.0194 251.992C51.1021 252.02 51.1924 252.018 51.2733 251.985C51.3543 251.951 51.4205 251.89 51.4594 251.811C52.3203 250.611 53.4356 249.617 54.7253 248.9C56.0149 248.182 57.4471 247.759 58.919 247.662C60.3909 247.564 61.8662 247.794 63.239 248.335C64.6119 248.875 65.8483 249.714 66.8597 250.79C67.2797 251.15 67.4197 251.691 67.9797 250.95C69.3197 247.724 73.1198 247.263 76.4398 247.604C76.5212 247.599 76.5993 247.57 76.6636 247.52C76.728 247.47 76.7755 247.401 76.7998 247.323C77.1821 245.259 78.3242 243.414 79.9999 242.154C81.7604 241.046 83.752 240.361 85.82 240.15C86.1237 239.848 86.3593 239.484 86.5111 239.083C86.6629 238.682 86.7273 238.254 86.7 237.826C86.6286 236.087 87.1387 234.373 88.1496 232.958C89.1605 231.542 90.6141 230.505 92.2801 230.011C99.8602 227.647 106.28 231.514 107.3 231.354C108.32 231.194 108.74 230.372 108.84 229.35C108.84 228.749 108.74 227.166 110.84 226.946C112.94 226.725 113.6 229.37 114.54 230.592C115.255 231.453 116.195 232.097 117.256 232.451C118.316 232.805 119.453 232.855 120.541 232.596C121.921 232.376 122.361 231.875 123.861 232.456C124.959 232.804 126.093 233.026 127.241 233.117C127.903 232.592 128.42 231.906 128.742 231.123C129.064 230.341 129.181 229.489 129.081 228.649C129.079 228.603 129.068 228.559 129.047 228.518C129.025 228.478 128.995 228.443 128.959 228.416C128.922 228.389 128.88 228.371 128.835 228.362C128.791 228.354 128.745 228.356 128.701 228.368C128.176 228.477 127.632 228.45 127.121 228.288C126.61 228.127 126.148 227.837 125.781 227.447C125.161 226.765 124.901 225.904 123.941 225.583C122.981 225.263 121.941 225.463 121.081 225.182C120.536 224.897 120.065 224.49 119.703 223.992C119.342 223.495 119.099 222.92 118.995 222.314C118.89 221.707 118.927 221.085 119.101 220.495C119.276 219.905 119.583 219.363 120.001 218.911C121.362 217.358 123.107 216.19 125.061 215.525C125.129 215.487 125.179 215.424 125.202 215.349C125.224 215.274 125.217 215.193 125.181 215.124C124.398 213.823 124.136 212.273 124.447 210.786C124.759 209.299 125.621 207.985 126.861 207.109C126.914 207.077 126.957 207.029 126.982 206.972C127.007 206.914 127.014 206.85 127.001 206.789C125.721 200.898 131.001 195.448 137.001 195.127C139.801 195.288 141.621 194.867 141.001 191.681C141.098 190.318 141.524 188.999 142.242 187.837C142.959 186.675 143.947 185.705 145.121 185.009C148.001 183.185 151.641 184.368 154.361 185.69C155.584 183.862 157.368 182.483 159.442 181.76C161.517 181.037 163.77 181.01 165.861 181.683C165.981 181.683 168.121 194.426 176.501 195.889C177.622 196.089 184.002 196.229 196.082 187.313C194.982 190.759 189.962 209.173 189.062 214.463C188.822 215.966 190.042 216.727 191.062 217.408C186.102 225.082 168.321 247.323 160.001 265.176ZM305.024 202.861C306.1 204.499 306.787 206.363 307.029 208.308C307.272 210.254 307.065 212.229 306.424 214.082C306.394 214.168 306.396 214.261 306.429 214.346C306.462 214.43 306.524 214.5 306.604 214.543C316.724 219.993 313.164 230.572 313.164 230.572C311.574 230.955 310.095 231.703 308.844 232.756C308.644 232.957 308.844 233.257 309.164 233.077C310.584 231.964 312.265 231.233 314.046 230.953C315.828 230.672 317.651 230.852 319.344 231.474C321.99 232.547 324.193 234.491 325.589 236.986C326.986 239.481 327.491 242.378 327.024 245.199C339.504 242.154 345.024 250.589 345.444 251.21C346.724 253.054 347.184 252.813 349.444 252.893C356.924 253.234 363.445 259.405 366.545 266.158C327.464 269.103 288.163 266.759 249.003 265.036C252.119 254.34 253.8 243.276 254.003 232.135C254.761 232.005 255.509 231.824 256.243 231.594C256.758 230.651 257.135 229.639 257.363 228.589C259.363 218.31 262.643 207.851 263.363 197.131C265.943 199.511 268.749 201.632 271.743 203.463C271.983 203.583 272.743 202.962 272.983 202.801C275.084 204.062 277.089 205.475 278.983 207.029C282.463 210.676 280.983 214.383 281.903 228.308C282.803 243.135 284.143 246.722 283.723 247.924C283.103 249.507 277.203 250.709 281.903 251.932C282.443 251.932 284.143 251.451 283.903 252.553C283.283 253.575 281.903 255.558 284.143 256.079C284.469 256.114 284.796 256.029 285.063 255.839C285.092 256.176 285.241 256.492 285.484 256.727C285.726 256.963 286.046 257.103 286.383 257.121C286.748 257.137 287.109 257.037 287.414 256.835C287.719 256.634 287.953 256.341 288.083 255.999C288.158 256.206 288.287 256.389 288.455 256.53C288.624 256.671 288.827 256.764 289.043 256.801C291.303 256.64 291.183 253.454 291.763 251.511C292.303 247.744 292.403 243.496 294.503 239.769C299.724 225.743 303.204 211.718 296.503 198.614C298.175 198.337 299.891 198.6 301.404 199.363C302.918 200.126 304.15 201.351 304.924 202.861H305.024ZM292.683 241.873C291.643 244.157 290.683 253.294 290.443 253.895C290.203 254.496 289.863 256.72 288.683 255.618C288.523 255.268 288.468 254.878 288.523 254.496C288.523 254.116 288.003 254.136 287.943 254.496C287.943 255.218 287.523 256.24 286.643 256.32C285.163 256.32 285.743 254.456 285.703 254.316C285.686 254.247 285.646 254.186 285.59 254.142C285.533 254.099 285.464 254.075 285.393 254.075C285.322 254.075 285.253 254.099 285.197 254.142C285.141 254.186 285.101 254.247 285.083 254.316C285.083 254.456 284.943 255.839 283.863 255.238C283.403 254.957 283.463 254.496 283.683 254.096C283.903 253.695 284.503 253.114 284.603 252.473C284.64 252.202 284.587 251.926 284.454 251.688C284.32 251.449 284.113 251.261 283.863 251.15C283.203 251.015 282.523 251.015 281.863 251.15C281.563 251.15 280.963 251.15 280.863 250.749C280.763 250.349 281.883 250.148 282.183 250.048C285.623 248.826 284.383 246.041 283.923 242.294C282.983 234.78 282.603 227.006 282.303 219.212V212.399C281.883 207.009 278.483 204.805 273.763 202.381C273.763 202.381 283.603 195.268 288.263 187.934C298.924 200.858 304.564 213 292.583 241.873H292.683ZM281.843 172.245C284.902 176.029 287.531 180.142 289.683 184.508C286.563 190.519 277.263 198.814 272.063 202.541C269.863 201.419 263.163 197.632 257.283 186.912C257.163 186.692 256.823 186.912 256.943 187.113C258.64 190.385 260.649 193.485 262.943 196.37C262.243 205.627 259.423 214.964 257.603 224.241C257.19 226.477 256.615 228.68 255.883 230.833C249.883 232.296 207.462 226.645 191.102 216.266C190.042 215.625 189.802 215.324 190.042 214.002C192.042 203.182 198.602 178.978 206.042 164.17C206.162 163.91 205.782 163.69 205.662 163.95C202.245 170.745 199.318 177.776 196.902 184.989C193.062 179.759 188.642 171.664 188.042 163.309C187.762 161.986 188.942 161.305 189.842 160.724C190.742 160.143 209.162 145.015 226.102 146.017C227.482 146.017 231.022 146.378 231.442 146.378C230.939 148.364 231.027 150.454 231.695 152.391C232.363 154.328 233.582 156.027 235.202 157.278C239.563 160.283 249.203 159.622 255.203 152.669C265.451 157.035 274.539 163.738 281.743 172.245H281.843Z" fill="#1F41BB"/>
<path d="M243.043 129.547C243.088 129.536 243.13 129.513 243.163 129.481C243.197 129.448 243.221 129.407 243.233 129.362C243.245 129.317 243.245 129.27 243.233 129.225C243.221 129.18 243.196 129.139 243.163 129.106C242.783 128.766 241.823 128.786 241.823 128.084C243.185 126.294 244.654 124.587 246.223 122.975C246.403 122.775 246.123 122.454 245.923 122.654C241.683 126.922 240.843 127.543 241.283 128.665C241.453 128.973 241.712 129.222 242.026 129.379C242.341 129.537 242.695 129.595 243.043 129.547ZM241.883 122.214C242.298 121.75 242.686 121.261 243.043 120.751C243.243 120.47 242.763 120.11 242.523 120.47C242.16 120.949 241.838 121.459 241.563 121.993C241.567 122.03 241.58 122.065 241.599 122.096C241.618 122.128 241.643 122.155 241.673 122.175C241.704 122.196 241.738 122.21 241.774 122.217C241.81 122.224 241.847 122.222 241.883 122.214ZM249.543 126.401C249.823 126.401 252.043 124.859 251.543 124.398C251.479 124.334 251.393 124.298 251.303 124.298C251.213 124.298 251.127 124.334 251.063 124.398C250.783 124.879 249.303 125.7 249.323 126.401C249.356 126.421 249.394 126.431 249.433 126.431C249.471 126.431 249.509 126.421 249.543 126.401ZM246.123 136.099C246.883 136.66 248.263 135.779 248.903 134.697C249.265 133.985 249.56 133.24 249.783 132.472C249.794 132.439 249.799 132.403 249.796 132.368C249.793 132.333 249.783 132.299 249.767 132.267C249.75 132.236 249.728 132.208 249.7 132.186C249.673 132.164 249.641 132.147 249.607 132.138C249.573 132.128 249.537 132.126 249.502 132.131C249.467 132.135 249.433 132.147 249.403 132.165C249.373 132.183 249.346 132.208 249.326 132.236C249.305 132.265 249.29 132.298 249.283 132.332C249.045 132.862 248.668 133.317 248.193 133.648C247.717 133.98 247.161 134.176 246.583 134.216C245.503 134.556 245.383 135.598 246.123 136.099ZM147.381 70.9795C147.339 70.953 147.287 70.9444 147.239 70.9556C147.19 70.9669 147.148 70.9971 147.121 71.0396C147.095 71.0822 147.086 71.1335 147.097 71.1823C147.109 71.2312 147.139 71.2736 147.181 71.3001C158.621 79.8358 161.181 80.9779 167.822 86.468C168.042 86.6483 168.362 86.3478 168.141 86.1274C161.587 80.5938 154.649 75.5319 147.381 70.9795ZM183.442 98.0693C183.722 98.1895 184.022 97.8689 183.782 97.6285C183.542 97.388 177.782 93.5009 176.582 92.6994C176.302 92.4991 176.042 92.9399 176.322 93.1402C177.482 93.9818 182.782 97.7687 183.442 98.0693ZM59.7397 29.4833L55.7396 30.5453C62.1998 39.8824 73.3599 48.9391 81.4001 58.2562C82.7801 58.5166 69.9999 37.2977 65.0598 27.1991L68.3999 26.9787C68.4838 26.9799 68.5662 26.9559 68.6364 26.9098C68.7066 26.8636 68.7614 26.7975 68.7937 26.7198C68.826 26.6422 68.8343 26.5566 68.8176 26.4742C68.8008 26.3918 68.7598 26.3163 68.6999 26.2574C61.3565 16.5358 52.8152 7.78376 43.2794 0.209554C43.0394 -0.291366 42.2994 0.209554 42.5394 0.630326C47.4795 10.6688 54.8396 19.7454 59.7397 29.4833ZM67.5998 26.1772L64.3998 26.3576C64.3226 26.3578 64.2469 26.3783 64.1802 26.417C64.1134 26.4558 64.058 26.5115 64.0195 26.5784C63.981 26.6454 63.9608 26.7214 63.9608 26.7987C63.9609 26.8759 63.9812 26.9519 64.0198 27.0188C68.0198 35.3541 78.46 53.5475 79.12 54.6095C73.3799 48.5984 58.8997 32.8695 57.1197 31.0262L60.4197 30.1646C60.4808 30.1454 60.537 30.113 60.5843 30.0698C60.6316 30.0266 60.6689 29.9736 60.6937 29.9145C60.7184 29.8553 60.73 29.7915 60.7276 29.7274C60.7252 29.6633 60.7089 29.6005 60.6797 29.5434C56.6797 21.5287 44.8195 3.21507 43.9395 1.49191C53.2996 8.16416 65.9998 24.2136 67.5998 26.1772ZM63.2598 80.7174C63.3573 80.7367 63.4583 80.7251 63.549 80.6843C63.6397 80.6436 63.7155 80.5756 63.766 80.4899C63.8164 80.4041 63.8391 80.3048 63.8308 80.2056C63.8226 80.1064 63.7838 80.0122 63.7198 79.936C61.0316 76.4249 57.8986 73.2794 54.3996 70.5788C60.9197 69.617 67.5598 69.6571 74.08 68.5751C74.52 68.5751 74.44 67.8738 74.08 67.7536L33.5393 54.5694C33.4412 54.5269 33.3302 54.5252 33.2308 54.5646C33.1314 54.6041 33.0517 54.6815 33.0093 54.7798C32.9668 54.8781 32.9651 54.9893 33.0045 55.0888C33.0439 55.1884 33.1211 55.2682 33.2193 55.3108C37.1457 57.6983 40.6527 60.7175 43.5994 64.2472C29.6392 62.9247 0.798746 61.8227 0.558742 61.8227C-0.00126692 61.6224 -0.241272 62.504 0.318738 62.7043C16.239 68.515 58.6797 79.5152 63.2598 80.7174ZM2.45877 62.4439C16.459 62.8847 29.0192 64.3273 44.4595 65.0887C44.8395 65.0887 44.9195 64.6679 44.7195 64.4275C42.2475 61.3056 39.3372 58.5588 36.0793 56.2725L72.0799 67.9941C65.7598 68.8556 59.3397 68.8356 53.0396 69.8775C52.6396 69.8775 52.6196 70.5187 52.9196 70.699C56.3939 73.1129 59.4595 76.0691 61.9998 79.4551C42.1794 74.2455 21.9991 69.4367 2.45877 62.4439ZM72.4599 105.182C64.1198 109.33 42.1794 118.687 39.7194 119.629C39.6198 119.66 39.5344 119.725 39.4786 119.814C39.4227 119.902 39.3999 120.007 39.4143 120.111C39.4287 120.214 39.4794 120.309 39.5573 120.379C39.6351 120.448 39.7351 120.488 39.8394 120.49H49.5195C40.8394 128.505 34.6593 134.516 24.3991 140.527C24.1191 140.688 25.2191 141.229 25.5192 141.088C40.1837 133.995 54.3737 125.957 67.9999 117.024C68.6399 115.321 61.9997 116.623 60.8397 116.263L72.8399 105.864C73.3599 105.523 72.8599 104.982 72.4599 105.182ZM59.4797 116.383C59.4197 116.442 59.3787 116.517 59.362 116.6C59.3453 116.682 59.3536 116.768 59.3859 116.845C59.4182 116.923 59.473 116.989 59.5432 117.035C59.6134 117.081 59.6958 117.105 59.7797 117.104H66.4398C54.3495 124.98 41.7928 132.113 28.8392 138.463C36.8659 133.355 44.252 127.301 50.8396 120.43C50.8921 120.372 50.9273 120.3 50.9411 120.223C50.9549 120.145 50.9467 120.065 50.9176 119.992C50.8884 119.919 50.8394 119.856 50.7761 119.809C50.7129 119.763 50.6378 119.735 50.5596 119.729H42.0794C50.0796 116.583 68.4799 108.168 69.8799 107.487L59.4797 116.383Z" fill="#1F41BB"/>
</svg>
