<svg width="380" height="285" viewBox="0 0 380 285" fill="none" xmlns="http://www.w3.org/2000/svg">
<path d="M295.236 111.828C294.397 111.828 294.397 113.382 295.236 113.382C297.232 113.382 325.041 112.924 327.377 112.466C327.589 112.434 327.784 112.327 327.924 112.164C328.064 112.001 328.141 111.794 328.141 111.579C328.141 111.364 328.064 111.156 327.924 110.994C327.784 110.831 327.589 110.724 327.377 110.692C320.05 109.735 303.301 111.668 295.236 111.828ZM306.375 152.524C305.457 152.524 305.617 154.059 306.495 154.098C313.003 154.318 323.144 153.979 329.792 153.68C331.01 153.68 331.15 151.687 329.792 151.687C322.346 151.727 313.842 151.827 306.375 152.524ZM307.234 83.787C307.04 83.7953 306.856 83.8736 306.716 84.0071C306.576 84.1407 306.49 84.3205 306.473 84.5131C306.456 84.7057 306.509 84.8979 306.623 85.0539C306.738 85.21 306.905 85.3193 307.094 85.3615C310.667 85.7999 322.266 86.2583 325.76 84.7835C325.938 84.695 326.083 84.5508 326.173 84.3727C326.262 84.1946 326.291 83.9922 326.255 83.7963C326.219 83.6004 326.12 83.4215 325.973 83.2868C325.826 83.1521 325.639 83.0688 325.44 83.0496C320.809 82.7706 313.382 84.2454 307.234 83.787ZM284.436 122.291C301.285 122.052 320.37 120.876 337.378 119.321C338.436 119.321 338.337 117.328 337.239 117.328C320.509 117.747 300.965 118.843 284.336 120.557C284.106 120.57 283.89 120.674 283.736 120.846C283.583 121.018 283.504 121.244 283.517 121.474C283.531 121.704 283.635 121.919 283.807 122.072C283.979 122.225 284.205 122.304 284.436 122.291ZM308.591 33.5247C313.283 33.1659 317.974 32.8869 322.566 32.3289C323.883 32.1894 323.544 30.3359 322.246 30.3359C317.575 30.6947 312.903 31.2925 308.272 31.8306C307.194 31.9502 307.493 33.6044 308.591 33.5247ZM281.202 75.0977C280.203 75.0977 280.164 76.7917 281.202 76.8715C292.488 77.3962 303.796 76.607 314.9 74.5198C316.157 74.3005 315.958 72.3076 314.68 72.5268C303.623 74.4092 292.417 75.2698 281.202 75.0977ZM318.353 43.0709C320.09 43.4894 320.35 40.6594 318.753 40.9385C310.961 42.1995 303.064 42.6869 295.176 42.3933C294.118 42.3933 293.878 43.9279 294.956 44.0475C302.762 44.8298 310.64 44.501 318.353 43.0709ZM275.113 121.354C273.556 120.756 266.369 121.753 264.353 121.972C263.374 121.972 263.334 123.546 264.353 123.527L272.518 123.267C276.291 123.128 276.271 121.813 275.113 121.354ZM283.358 207.589C281.681 207.191 269.763 208.088 267.806 208.207C266.768 208.207 266.968 209.802 268.006 209.782C270.122 209.782 281.721 209.782 283.557 209.204C284.376 208.925 284.096 207.749 283.358 207.589ZM267.786 199.159C273.396 199.418 287.29 199.657 292.9 198.322C293.031 198.321 293.161 198.293 293.28 198.239C293.399 198.185 293.506 198.106 293.593 198.009C293.68 197.911 293.746 197.796 293.786 197.672C293.826 197.547 293.84 197.415 293.826 197.285C293.812 197.155 293.771 197.03 293.705 196.916C293.639 196.803 293.551 196.705 293.445 196.628C293.339 196.551 293.218 196.497 293.089 196.47C292.961 196.442 292.829 196.442 292.7 196.469C284.496 196.469 276.89 197.844 268.026 197.485C266.968 197.445 266.688 199.099 267.786 199.159ZM287.151 163.724C288.348 163.505 288.249 161.732 286.991 161.732C278.127 162.628 276.271 162.848 267.187 163.206C266.309 163.206 266.209 164.721 267.187 164.781C273.86 165.223 280.562 164.868 287.151 163.724ZM299.448 151.189C288.588 151.587 277.309 153.421 265.97 153.819C265.767 153.851 265.582 153.953 265.449 154.108C265.315 154.264 265.242 154.462 265.242 154.666C265.242 154.871 265.315 155.069 265.449 155.224C265.582 155.38 265.767 155.482 265.97 155.513C275.372 155.513 290.504 155.075 299.668 153.042C299.859 152.958 300.018 152.814 300.121 152.633C300.225 152.452 300.268 152.242 300.243 152.035C300.218 151.827 300.128 151.633 299.985 151.481C299.842 151.329 299.654 151.226 299.448 151.189ZM336.44 202.707C336.28 202.707 325.32 203.604 323.444 203.544C323.266 203.576 323.103 203.664 322.98 203.795C322.857 203.927 322.779 204.095 322.759 204.274C322.739 204.453 322.777 204.634 322.868 204.79C322.959 204.945 323.098 205.068 323.264 205.138C325.5 205.557 334.923 205.716 336.859 204.082C336.957 203.975 337.025 203.844 337.057 203.703C337.088 203.561 337.083 203.414 337.041 203.275C336.998 203.137 336.921 203.012 336.816 202.912C336.71 202.812 336.581 202.741 336.44 202.707ZM339.973 159.24C326.139 160.137 310.687 160.655 296.913 161.831C295.835 161.831 296.034 163.445 297.072 163.505C304.519 163.724 331.01 162.369 340.153 161.213C340.284 161.203 340.411 161.167 340.527 161.108C340.643 161.048 340.746 160.965 340.83 160.865C340.914 160.764 340.977 160.648 341.015 160.523C341.053 160.398 341.065 160.267 341.052 160.137C341.026 159.876 340.899 159.636 340.697 159.468C340.495 159.3 340.235 159.218 339.973 159.24ZM288.009 113.92C288.274 113.92 288.528 113.816 288.715 113.629C288.902 113.442 289.007 113.188 289.007 112.924C289.007 112.66 288.902 112.406 288.715 112.219C288.528 112.033 288.274 111.928 288.009 111.928C279.405 112.147 270.721 112.207 262.057 112.864C261.871 112.906 261.704 113.009 261.585 113.158C261.465 113.306 261.4 113.491 261.4 113.681C261.4 113.872 261.465 114.057 261.585 114.205C261.704 114.354 261.871 114.457 262.057 114.498C270.761 114.658 279.405 114.2 288.009 113.92ZM322.046 194.376C319.012 194.376 308.072 195.153 305.477 195.612C304.638 195.751 304.519 197.126 305.477 197.166C308.292 197.306 319.172 196.608 322.326 196.329C323.544 196.369 323.284 194.376 322.046 194.376ZM316.217 205.557L291.123 207.151C289.985 207.151 290.265 208.885 291.383 208.825C296.254 208.606 311.925 207.988 316.317 207.39C317.295 207.271 317.315 205.557 316.217 205.557ZM298.25 32.3289C290.884 31.4918 267.766 32.8869 259.921 33.6841C258.843 33.7837 258.763 35.4578 259.921 35.3582C272.817 34.5211 285.374 34.2421 298.27 34.282C298.495 34.234 298.697 34.1097 298.841 33.9303C298.985 33.7508 299.062 33.5272 299.06 33.2973C299.058 33.0674 298.976 32.8454 298.828 32.6689C298.681 32.4924 298.476 32.3723 298.25 32.3289ZM300.386 86.1188C301.644 85.9394 301.185 84.1258 299.927 84.1258C287.078 85.5873 274.15 86.2528 261.218 86.1188C261.031 86.1487 260.86 86.2443 260.737 86.3886C260.613 86.5329 260.546 86.7163 260.546 86.906C260.546 87.0956 260.613 87.2791 260.737 87.4233C260.86 87.5676 261.031 87.6633 261.218 87.6932C274.295 88.3219 287.402 87.7951 300.386 86.1188ZM286.831 44.3863C286.963 44.3738 287.09 44.3355 287.207 44.2735C287.323 44.2116 287.426 44.1272 287.509 44.0253C287.593 43.9233 287.655 43.8059 287.693 43.6797C287.731 43.5535 287.743 43.4211 287.73 43.2901C287.717 43.159 287.679 43.0317 287.617 42.9155C287.555 42.7993 287.47 42.6965 287.368 42.6131C287.266 42.5297 287.148 42.4673 287.022 42.4296C286.895 42.3919 286.763 42.3796 286.632 42.3933C277.828 43.4894 269.483 43.5293 260.799 44.2866C259.881 44.3863 259.781 45.881 260.799 45.9208C269.503 46.0613 278.205 45.5483 286.831 44.3863ZM262.097 75.9348C261.099 75.9348 261.079 77.5092 262.217 77.5491C265.799 77.8859 269.401 77.9791 272.997 77.8281C273.159 77.7559 273.296 77.6384 273.393 77.4899C273.489 77.3413 273.54 77.1681 273.54 76.991C273.54 76.814 273.489 76.6407 273.393 76.4922C273.296 76.3437 273.159 76.2262 272.997 76.154C272.637 75.9547 263.933 75.9348 262.097 75.9348ZM237.183 87.4142C238.34 87.4142 242.633 80.3193 245.048 77.8879C245.926 77.011 244.489 75.5362 243.591 76.3732C241.044 78.6653 238.839 81.3096 237.043 84.2255L231.992 79.5819C230.954 78.6253 229.616 80.2595 230.575 81.236C231.533 82.2126 235.705 87.4142 237.183 87.4142ZM223.528 54.8692C231.713 55.3475 240.217 55.1881 249.2 55.2479C249.839 55.2479 250.219 53.4742 249.2 32.309C249.2 30.7744 249.061 29.6384 249.041 29.2199C249.046 29.1582 249.038 29.0961 249.017 29.0377C248.997 28.9793 248.964 28.9259 248.921 28.8811C248.342 28.2633 244.569 28.3031 236.085 28.5223C221.811 28.8611 220.234 28.7615 220.234 29.5786C220.174 29.738 221.072 54.6301 223.528 54.8692ZM224.087 53.3944C223.088 48.0732 222.37 36.833 221.751 30.5352C227.56 30.874 240.796 30.2164 247.464 30.0569C247.464 30.0569 247.823 47.7743 247.983 53.4941C240.157 53.3147 231.992 53.0158 224.007 53.2948L224.087 53.3944Z" fill="#1F41BB"/>
<path d="M251.955 92.6158C253.632 91.9581 251.676 73.3837 251.396 68.501C251.383 68.4006 251.333 68.3085 251.257 68.2419C250.059 67.2056 224.726 68.5807 223.448 68.6803C222.17 68.78 223.448 75.7155 223.667 80.4388C224.127 92.1972 224.666 93.2136 225.265 93.2934C229.617 93.9112 247.963 94.1703 251.955 92.6158ZM224.666 70.3146C233.31 69.7565 242.074 69.7167 249.859 69.6768C250.059 74.3403 250.378 87.4739 250.778 91.0214C242.641 91.8615 234.454 92.0946 226.283 91.7189C226.622 88.7494 224.965 73.6827 224.666 70.3146ZM240.916 120.637L245.547 116.452C245.682 116.224 245.742 115.959 245.717 115.695C245.692 115.432 245.585 115.183 245.41 114.984C245.235 114.785 245.002 114.646 244.743 114.588C244.484 114.529 244.214 114.554 243.97 114.658C242.074 115.824 240.353 117.253 238.86 118.903L234.707 115.076C234.482 114.868 234.183 114.757 233.876 114.768C233.569 114.779 233.279 114.912 233.07 115.136C232.861 115.361 232.75 115.659 232.761 115.966C232.772 116.272 232.905 116.562 233.13 116.77L237.123 120.756C233.529 124.543 231.952 126.915 232.312 127.991C232.671 129.067 233.969 128.589 234.308 128.11C235.705 126.396 237.282 124.443 238.979 122.63C240.661 124.463 242.528 126.119 244.549 127.572C244.758 127.626 244.977 127.623 245.184 127.563C245.391 127.503 245.577 127.389 245.725 127.231C245.872 127.074 245.974 126.881 246.02 126.67C246.066 126.46 246.054 126.242 245.986 126.038C244.484 124.071 242.785 122.261 240.916 120.637ZM241.974 35.1987C238.785 37.9828 236.18 41.3694 234.308 45.1635C232.804 43.3663 231.073 41.7719 229.157 40.4202C227.98 39.6031 226.462 41.1576 227.62 42.0345C229.897 44.0438 232.026 46.2151 233.988 48.5316C234.508 49.0697 235.007 48.7906 235.446 48.2127C237.62 43.9843 240.301 40.0358 243.431 36.4542C244.389 35.398 243.012 34.2221 241.974 35.1987ZM241.335 165.319C242.373 164.601 246.326 156.988 248.622 154.397C249.52 153.401 247.963 152.026 246.945 153.082C244.212 155.893 241.869 159.057 239.977 162.489L235.326 158.503C234.308 157.646 232.95 159.18 234.008 160.197C235.066 161.213 239.618 166.794 241.335 165.319ZM256.567 190.868C255.808 189.374 228.499 190.868 228.239 190.868C228.179 190.876 228.123 190.898 228.074 190.933C228.025 190.967 227.986 191.014 227.96 191.068C227.041 192.543 227.96 216.518 228.618 218.75C229.397 221.46 255.868 219.208 257.186 219.328C257.226 219.337 257.267 219.337 257.306 219.328C257.346 219.319 257.383 219.302 257.416 219.277C257.448 219.252 257.475 219.221 257.494 219.185C257.512 219.149 257.523 219.109 257.525 219.069C257.944 216.02 256.667 191.068 256.567 190.868ZM229.517 192.323C237.502 192.662 246.945 192.164 255.05 192.144C255.17 195.472 255.888 215.003 255.988 217.634C247.124 218.032 239.678 217.893 230.235 217.634C230.335 214.306 229.636 195.353 229.517 192.383V192.323Z" fill="#1F41BB"/>
<path d="M239.159 205.238C240.576 205.238 247.823 205.736 248.402 205.417C248.555 205.33 248.685 205.21 248.783 205.064C248.881 204.919 248.944 204.753 248.968 204.58C248.991 204.406 248.973 204.229 248.917 204.063C248.86 203.897 248.766 203.747 248.641 203.623C247.583 202.507 240.896 202.746 239.778 202.966C238.261 203.245 237.981 203.823 238.021 204.261C238.074 204.527 238.215 204.768 238.421 204.945C238.628 205.122 238.887 205.225 239.159 205.238ZM241.854 146.744C235.306 146.864 228.419 147.103 227.281 147.183C226.842 147.183 226.382 147.561 226.323 151.707C226.323 156.669 227.181 172.394 229.177 172.533C233.17 172.832 253.812 172.912 256.467 172.713C256.886 172.713 257.226 172.713 256.467 162.349C256.048 157.008 255.11 147.302 255.11 147.302C255.03 146.904 254.99 146.545 241.854 146.744ZM253.612 148.498C254.091 155.932 254.351 163.545 255.15 171.019H229.756C228.978 163.824 228.459 156.41 227.9 148.797L253.612 148.498ZM231.992 135.524C240.097 135.524 253.652 134.428 253.772 134.368C255.05 133.71 253.772 115.714 253.353 108.021C253.353 106.646 246.306 106.626 240.457 106.845C237.901 106.845 225.205 107.523 225.245 109.337C225.923 136.022 225.764 134.727 226.263 135.006C228.131 135.492 230.067 135.668 231.992 135.524ZM227.78 133.531C227.321 125.679 227.161 117.348 226.842 109.616C235.131 108.881 243.455 108.601 251.776 108.779C251.776 111.509 252.315 129.665 252.654 132.694C249.7 132.893 230.874 133.033 227.84 133.551L227.78 133.531Z" fill="#1F41BB"/>
<path d="M377.724 165.02C372.494 22.9819 374.69 24.1776 373.731 23.3406C372.374 22.0651 361.893 22.9021 359.318 23.0416L358.24 1.25864C358.291 1.12726 358.31 0.985439 358.295 0.845211C358.28 0.704983 358.231 0.570484 358.153 0.453126C358.074 0.335768 357.969 0.239016 357.845 0.171076C357.721 0.103136 357.583 0.0660143 357.441 0.0628615C315.518 -0.455307 272.378 2.3149 229.117 5.24455C217.459 6.06166 205.341 6.77912 193.483 8.03469C193.372 8.0169 193.259 8.02391 193.151 8.05521C193.043 8.0865 192.943 8.14132 192.859 8.21568C192.775 8.29004 192.709 8.3821 192.665 8.48521C192.621 8.58833 192.6 8.69992 192.605 8.81194C194.8 62.0239 201.189 148.04 212.228 243.283C212.348 244.379 221.451 243.423 229.636 242.885C229.744 245.229 230.167 247.549 230.894 249.78C232.092 251.295 380.18 242.127 380 235.83C379.361 212.173 378.503 188.218 377.724 165.02ZM366.505 227.16C314.001 235.132 266.788 237.364 214.065 241.908C203.624 151.607 199.332 89.6662 194.102 9.42976C210.312 8.47314 270.262 2.97258 356.862 1.83659C359.018 59.7718 367.044 220.783 366.445 227.16H366.505ZM115.906 90.1445C114.548 90.1445 114.568 92.7752 115.207 93.7717C115.281 93.9175 115.396 94.0387 115.537 94.1201C115.679 94.2016 115.842 94.2398 116.005 94.23C117.223 94.0905 117.163 90.284 115.906 90.1445ZM108.779 101.664C109.637 101.883 111.953 102.023 112.492 101.225C113.25 100.109 111.194 89.9851 110.935 89.2676C110.881 89.1212 110.778 88.9984 110.642 88.9213C110.506 88.8441 110.348 88.8175 110.194 88.8462C110.041 88.875 109.903 88.9571 109.804 89.0781C109.706 89.199 109.654 89.351 109.657 89.5067C109.657 91.3203 110.476 97.4786 110.795 100.049L108.799 100.169C108.653 100.231 108.528 100.334 108.44 100.466C108.351 100.597 108.303 100.752 108.301 100.91C108.299 101.068 108.343 101.224 108.428 101.358C108.513 101.492 108.634 101.598 108.779 101.664ZM114.209 86.4177C114.8 86.2561 115.421 86.2406 116.019 86.3726C116.618 86.5045 117.175 86.7799 117.642 87.175C118.421 87.8725 119.918 86.5372 117.782 85.182C116.245 84.1457 112.652 83.787 113.031 85.6205C113.093 85.8758 113.248 86.0989 113.466 86.2463C113.683 86.3937 113.948 86.4548 114.209 86.4177Z" fill="#1F41BB"/>
<path d="M172.741 158.862C159.905 146.226 136.807 131.379 116.045 128.429C116.389 127.244 116.389 125.987 116.045 124.802C117.626 123.483 119.095 122.037 120.437 120.477C123.292 117.129 123.232 113.861 119.16 115.515C123.152 106.706 123.152 87.6134 121.715 76.8913C128.403 81.0565 139.682 77.0507 138.304 68.9194C147.388 71.6498 153.297 53.6335 141.758 50.3849C143.375 36.7531 125.887 34.7801 120.537 42.732C117.523 33.943 103.668 38.5667 104.666 45.4623C98.4178 38.766 84.9226 41.0978 83.0461 49.4482C77.3965 44.3263 68.0736 46.4987 68.8921 54.052C59.9486 49.9066 55.2173 60.5889 62.1645 64.0168C57.7127 66.4083 57.8524 76.2535 64.6798 76.2535C64.6798 82.8303 68.6725 97.897 78.5543 106.148C79.6124 115.375 77.7159 120.099 74.4219 128.648C41.8419 133.591 17.1074 158.961 6.00777 190.43C-6.64895 226.303 -0.640003 260.183 36.871 267.318C36.7929 272.106 36.2311 276.873 35.1941 281.548C35.1754 281.724 35.221 281.901 35.3226 282.047C35.4242 282.193 35.5749 282.297 35.7471 282.34C35.9193 282.384 36.1015 282.364 36.2603 282.284C36.4191 282.205 36.5437 282.071 36.6115 281.907C37.9478 277.264 38.6726 272.467 38.7675 267.637C47.8044 268.978 57.0364 267.571 65.2615 263.601C73.4865 259.63 80.3237 253.28 84.8827 245.376C90.6616 247.567 96.5602 249.43 102.55 250.956C121.396 256.277 145.97 261.559 169.248 255.261C168.788 266.401 168.15 275.33 167.151 284.199C167.151 285.075 168.369 285.334 168.509 284.458C169.287 279.794 171.224 259.326 171.104 254.723C185.917 250.179 195.819 239.915 198.254 226.582C202.506 203.982 192.924 178.612 172.741 158.862ZM87.957 73.0249C88.4761 78.8443 87.957 82.9897 86.1803 85.6802C85.5215 86.6567 84.5234 87.6731 83.6649 87.6731C83.0061 86.9557 78.6941 82.4915 74.6216 85.1022C71.9664 86.8361 71.8467 90.2042 74.362 94.5887C76.1598 97.2518 77.446 100.225 78.1551 103.358C70.5091 95.067 68.1734 87.2945 66.4167 76.1539C68.446 75.7885 70.2982 74.7658 71.687 73.2441C75.1805 78.4258 83.7248 77.3895 87.957 73.0249ZM75.5798 86.4176C78.2748 84.7634 80.7703 86.7564 83.0461 88.7493C84.3836 89.9252 86.5796 88.271 87.6177 86.7564C90.3327 83.0096 90.0931 76.7916 89.7338 73.6826C91.6714 75.5249 94.2447 76.5524 96.9205 76.5524C99.5964 76.5524 102.17 75.5249 104.107 73.6826C104.507 79.4223 116.564 80.7376 119.739 75.9745C121.196 85.9393 121.895 107.483 117.063 116.511C113.071 118.265 103.988 122.271 99.4758 120.497C95.603 118.963 93.6466 113.063 89.1349 110.532C86.1004 108.858 83.5052 110.752 85.6213 114.14C90.9715 122.63 90.4924 125.858 86.2602 134.587C82.5509 133.578 79.0821 131.837 76.0589 129.465C80.4508 123.188 81.6486 111.987 80.5507 104.534C79.5725 97.897 78.5543 98.2956 75.9192 93.3929C74.7014 91.38 73.6234 87.6532 75.5798 86.4176ZM109.258 126.615C109.099 126.689 108.972 126.819 108.902 126.979C108.831 127.14 108.822 127.32 108.876 127.487C108.93 127.654 109.044 127.795 109.195 127.884C109.346 127.973 109.525 128.004 109.697 127.971C111.409 127.665 113.032 126.985 114.448 125.978C114.563 127.836 114.073 129.682 113.051 131.239C112.692 131.737 113.33 133.232 114.628 131.379C114.528 136.879 111.713 143.675 106.303 146.346C102.637 145.684 99.1471 144.271 96.0548 142.196C92.9624 140.121 90.3344 137.428 88.3363 134.288C94.3253 124.045 89.055 116.352 87.2982 113.163C86.32 111.33 86.8191 111.051 88.4162 112.087C92.1893 114.478 95.5032 121.155 99.1564 122.052C106.044 123.706 114.528 119.56 118.681 117.707C120.837 116.73 122.094 116.073 119.499 119.321C116.025 123.606 114.049 124.503 109.258 126.615ZM24.7733 211.675C24.701 211.837 24.6897 212.02 24.7414 212.189C24.7932 212.359 24.9044 212.504 25.0548 212.599C25.2052 212.693 25.3847 212.73 25.5603 212.703C25.7359 212.677 25.8959 212.587 26.011 212.452C43.5188 184.909 72.4855 165.797 87.3981 136.321C89.7138 141.463 99.6156 148.08 105.724 148.08C105.724 153.042 105.225 158.941 104.706 164.601C98.7172 163.226 82.527 158.164 79.6124 151.547C79.273 150.73 77.9554 151.288 78.2748 152.105C81.0098 159.499 97.8988 165.438 104.527 166.694C103.127 181.585 100.353 196.316 96.2418 210.698C93.2273 221.46 89.3545 234.474 83.7647 244.1C79.3084 252.014 72.4898 258.343 64.2594 262.205C56.0289 266.067 46.7966 267.269 37.8492 265.644C0.996986 259.187 -4.55281 226.004 7.96417 190.948C19.6627 158.104 45.2755 134.986 74.8212 130.601C78.0329 132.966 81.5436 134.896 85.262 136.341C70.2895 165.179 41.742 184.112 24.7733 211.675ZM97.9586 211.535C117.357 203.374 137.968 198.452 158.966 196.967C164.955 196.568 170.944 196.588 176.933 196.588C177.812 196.588 177.832 195.153 176.933 195.153C172.861 194.871 168.776 194.798 164.696 194.934C163.718 186.962 149.324 163.704 144.433 157.267C144.308 157.149 144.144 157.08 143.972 157.072C143.8 157.064 143.631 157.118 143.495 157.224C143.36 157.331 143.267 157.482 143.234 157.651C143.201 157.82 143.23 157.995 143.315 158.144C153.117 171.856 161.043 189.314 162.62 195.014C145.072 195.671 118.002 199.817 98.5176 209.343C100.354 202.627 107.461 174.925 107.621 147.561C113.111 145.11 117.024 136.241 116.564 130.283C137.263 134.989 156.248 145.337 171.404 160.177C189.191 177.575 200.091 200.036 196.737 224.45C194.96 238.4 185.038 249.202 170.226 253.128C144.693 260.104 118.421 254.045 93.2074 246.233C90.7665 245.413 88.2803 244.734 85.7611 244.2C90.8633 233.726 94.9478 222.788 97.9586 211.535Z" fill="#1F41BB"/>
<path d="M96.9805 83.229C97.4964 82.4679 98.1845 81.8386 98.989 81.392C99.7936 80.9454 100.692 80.694 101.612 80.6581C103.069 80.6581 102.989 78.4659 101.612 78.6652C100.426 78.7896 99.2846 79.1828 98.2743 79.8149C97.2641 80.447 96.4118 81.3012 95.7827 82.3123C95.2636 83.1294 96.4215 84.0262 96.9805 83.229ZM101.692 88.7495C100.873 89.4072 100.933 92.7354 102.171 92.7354C102.454 92.706 102.719 92.5815 102.922 92.3824C103.125 92.1833 103.254 91.9213 103.289 91.6393C103.748 89.9054 102.57 88.1317 101.692 88.7495ZM99.935 105.211C99.8977 105.055 99.8131 104.915 99.6927 104.809C99.5724 104.703 99.4221 104.637 99.2626 104.619C99.1031 104.602 98.942 104.634 98.8015 104.712C98.661 104.789 98.5479 104.908 98.4777 105.052C98.2781 105.331 97.8988 106.188 98.7372 107.922C99.3064 109.102 100.289 110.034 101.499 110.54C102.709 111.047 104.063 111.094 105.305 110.672C105.473 110.605 105.611 110.479 105.693 110.318C105.774 110.156 105.793 109.971 105.746 109.796C105.699 109.621 105.59 109.47 105.439 109.371C105.287 109.271 105.105 109.231 104.926 109.257C102.091 109.815 100.454 108.021 99.935 105.211Z" fill="#1F41BB"/>
</svg>
