<svg width="24" height="24" viewBox="0 0 24 24" fill="none" xmlns="http://www.w3.org/2000/svg">
<path d="M12.1556 8.68152L5.11686 17.3534C5.07374 17.4059 5.03999 17.4659 5.01561 17.5296L4.10061 19.9315C3.89811 20.464 4.40436 20.9909 4.88811 20.7453L7.14186 19.5996C7.20561 19.5678 7.26561 19.5209 7.31436 19.4665L15.0169 10.804C15.15 10.6559 15.2062 10.4459 15.1687 10.2434C15.0319 9.50089 14.49 7.84902 12.4219 8.49402C12.3187 8.52589 12.2269 8.59339 12.1556 8.68152Z" fill="#BCAAA4"/>
<path d="M7.14187 19.6013L4.88812 20.7469C4.40624 20.9925 3.89812 20.4656 4.10062 19.9331L5.01562 17.5312L7.14187 19.6013Z" fill="#BDBDBD"/>
<path d="M12 8.687C12.9638 7.6295 16.6744 3.69575 18.8869 2.72825C19.725 2.36075 20.7788 3.00388 20.5106 4.04825C20.1394 5.48638 14.955 11.4058 14.955 11.4058C14.8481 11.5426 14.4431 11.6383 14.3213 11.5876C14.28 11.5708 14.4338 11.4826 14.4038 11.4339L14.3813 11.342C14.3625 11.267 14.3325 11.1939 14.2913 11.1283C13.7738 10.3126 13.0519 9.76513 12.0975 9.32825C11.9925 9.2795 11.64 9.28138 11.64 9.28138C11.64 9.01513 11.85 8.852 12 8.687Z" fill="black"/>
<path d="M4.2694 19.5449L4.01815 20.1674C3.8419 20.6024 4.28253 21.0318 4.69878 20.8312L5.35128 20.5199L4.2694 19.5449Z" fill="#212121"/>
<path d="M9.7669 15.3848L9.67127 15.2966C9.63976 15.2677 9.62076 15.2276 9.61831 15.1849C9.61586 15.1422 9.63015 15.1002 9.65815 15.0679L13.2975 10.9185C13.3113 10.9029 13.328 10.8902 13.3466 10.8811C13.3653 10.872 13.3856 10.8667 13.4064 10.8655C13.4271 10.8643 13.4479 10.8672 13.4675 10.874C13.4871 10.8809 13.5052 10.8915 13.5206 10.9054L13.6163 10.9935C13.6819 11.0535 13.6875 11.1566 13.6294 11.2223L9.99002 15.3735C9.97629 15.3892 9.95955 15.4019 9.94079 15.411C9.92204 15.4201 9.90165 15.4253 9.88084 15.4263C9.86003 15.4274 9.83923 15.4242 9.81965 15.4171C9.80008 15.41 9.78214 15.399 9.7669 15.3848Z" fill="#FAFAFA"/>
<path d="M12.0637 8.5803C13.0275 7.5378 16.8581 3.41468 19.0706 2.45843C19.9087 2.09655 20.9625 2.72655 20.6943 3.75405C20.3231 5.16968 15.1987 11.1003 15.1987 11.1003C15.0562 11.2803 14.7675 11.2653 14.6493 11.0703C14.1243 10.2022 13.3143 9.52718 12.345 9.14655L12.1856 9.08468C11.9737 9.0003 11.9118 8.74343 12.0637 8.5803Z" fill="#795548"/>
<path d="M17.0081 9.33338C18.2663 7.81651 19.29 6.75526 20.4506 4.94401C20.5556 4.77901 20.8144 5.01901 20.7131 5.19338C19.8638 6.69338 17.8388 8.99401 17.3194 9.58651C17.1881 9.73463 16.8975 9.46651 17.0081 9.33338Z" fill="black"/>
<path d="M20.6644 5.30036C20.5706 5.42974 20.3869 5.45786 20.2575 5.36411L19.9763 5.15974C19.9141 5.11402 19.8726 5.04562 19.8606 4.96942C19.8487 4.89322 19.8673 4.81538 19.9125 4.75286C20.0063 4.62349 20.19 4.59536 20.3194 4.68911L20.6006 4.89349C20.7319 4.98724 20.76 5.17099 20.6644 5.30036Z" fill="black"/>
<path d="M5.01562 17.5298C5.01562 17.5298 5.0475 17.4566 5.0625 17.4341C5.07375 17.4135 5.11688 17.3535 5.11688 17.3535L7.31437 19.4666C7.31437 19.4666 7.25437 19.5266 7.22812 19.5454C7.20375 19.5641 7.14188 19.5998 7.14188 19.5998L5.01562 17.5298Z" fill="white"/>
</svg>
