<svg width="18" height="18" viewBox="0 0 18 18" fill="none" xmlns="http://www.w3.org/2000/svg">
<path d="M6.308 12.5H11.692C11.9213 12.5 12.1133 12.4227 12.268 12.268C12.4227 12.1133 12.5 11.9213 12.5 11.692V6.308C12.5 6.07933 12.4227 5.88733 12.268 5.732C12.1133 5.57667 11.9213 5.49933 11.692 5.5H6.308C6.07933 5.5 5.88733 5.57733 5.732 5.732C5.57667 5.88667 5.49933 6.07867 5.5 6.308V11.692C5.5 11.9213 5.57733 12.1133 5.732 12.268C5.88667 12.4227 6.07867 12.5 6.308 12.5ZM9.003 18C7.759 18 6.589 17.764 5.493 17.292C4.39767 16.8193 3.44467 16.178 2.634 15.368C1.82333 14.558 1.18167 13.606 0.709 12.512C0.236333 11.418 0 10.2483 0 9.003C0 7.75767 0.236333 6.58767 0.709 5.493C1.181 4.39767 1.82133 3.44467 2.63 2.634C3.43867 1.82333 4.391 1.18167 5.487 0.709C6.583 0.236333 7.753 0 8.997 0C10.241 0 11.411 0.236333 12.507 0.709C13.6023 1.181 14.5553 1.82167 15.366 2.631C16.1767 3.44033 16.8183 4.39267 17.291 5.488C17.7637 6.58333 18 7.753 18 8.997C18 10.241 17.764 11.411 17.292 12.507C16.82 13.603 16.1787 14.556 15.368 15.366C14.5573 16.176 13.6053 16.8177 12.512 17.291C11.4187 17.7643 10.249 18.0007 9.003 18Z" fill="#1F41BB"/>
</svg>
