<svg width="19" height="19" viewBox="0 0 19 19" fill="none" xmlns="http://www.w3.org/2000/svg">
<path d="M9.32523 14.5914L6.03917 11.8025C5.89992 11.6842 5.72317 11.6192 5.54044 11.6191H3.54167C3.13279 11.6191 2.74066 11.4567 2.45154 11.1675C2.16243 10.8784 2 10.4863 2 10.0774V7.69862C2 7.28975 2.16243 6.89762 2.45154 6.6085C2.74066 6.31938 3.13279 6.15696 3.54167 6.15696H5.54121C5.72394 6.15685 5.90069 6.09183 6.03994 5.9735L9.32523 3.18308C9.43736 3.08793 9.57437 3.02685 9.72009 3.00703C9.86581 2.98721 10.0142 3.0095 10.1476 3.07125C10.2811 3.133 10.3941 3.23164 10.4733 3.35553C10.5526 3.47942 10.5947 3.62339 10.5948 3.77046V14.0056C10.5947 14.1526 10.5526 14.2966 10.4733 14.4205C10.3941 14.5444 10.2811 14.643 10.1476 14.7048C10.0142 14.7665 9.86581 14.7888 9.72009 14.769C9.57437 14.7492 9.43736 14.6881 9.32523 14.593V14.5914Z" stroke="#656565" stroke-width="1.5" stroke-linejoin="round"/>
<path d="M12.7253 6.22171C13.0953 6.4915 13.4037 6.88 13.618 7.34866C13.8315 7.81656 13.9448 8.34689 13.9448 8.88725C13.9448 9.42683 13.8315 9.95871 13.618 10.4258C13.4037 10.8937 13.0961 11.283 12.7253 11.5528M14.2948 4.58908C14.8922 5.0246 15.3893 5.65129 15.7339 6.40594C16.0785 7.15981 16.2604 8.01621 16.2604 8.88725C16.2604 9.75829 16.0785 10.6139 15.7339 11.3693C15.3886 12.1232 14.8922 12.7499 14.2948 13.1854" stroke="#656565" stroke-width="1.5" stroke-linecap="round" stroke-linejoin="round"/>
</svg>
