<svg width="19" height="19" viewBox="0 0 19 19" fill="none" xmlns="http://www.w3.org/2000/svg">
<g clip-path="url(#clip0_129_126)">
<mask id="mask0_129_126" style="mask-type:luminance" maskUnits="userSpaceOnUse" x="0" y="0" width="19" height="19">
<path d="M0.5 0.5H18V18H0.5V0.5Z" fill="white" stroke="white"/>
</mask>
<g mask="url(#mask0_129_126)">
<path fill-rule="evenodd" clip-rule="evenodd" d="M3.50344 2.27782C3.33905 2.12464 3.12162 2.04125 2.89696 2.04521C2.6723 2.04917 2.45795 2.14018 2.29906 2.29907C2.14018 2.45795 2.04917 2.6723 2.0452 2.89696C2.04124 3.12162 2.12463 3.33905 2.27781 3.50344L4.55563 5.78126H2.3125C1.69919 5.78126 1.11099 6.02489 0.677316 6.45857C0.243638 6.89225 0 7.48044 0 8.09376L0 10.4063C0 11.0196 0.243638 11.6078 0.677316 12.0414C1.11099 12.4751 1.69919 12.7188 2.3125 12.7188H4.625L7.49481 15.5886C7.78049 15.875 8.14474 16.0701 8.54143 16.1493C8.93811 16.2284 9.34937 16.1881 9.72309 16.0333C10.0968 15.8785 10.4162 15.6162 10.6407 15.2798C10.8652 14.9433 10.9849 14.5478 10.9844 14.1433V12.2112L14.9966 16.2233C15.0766 16.3061 15.1723 16.3722 15.2781 16.4176C15.384 16.463 15.4978 16.4868 15.6129 16.4878C15.7281 16.4887 15.8422 16.4667 15.9488 16.4231C16.0553 16.3794 16.1521 16.315 16.2335 16.2335C16.3149 16.1521 16.3792 16.0552 16.4228 15.9486C16.4664 15.842 16.4882 15.7278 16.4872 15.6127C16.4861 15.4975 16.4622 15.3837 16.4167 15.278C16.3712 15.1722 16.305 15.0765 16.2222 14.9966L3.50344 2.27782ZM9.25 10.4756L5.81594 7.04157C5.49406 7.34587 5.06795 7.51549 4.625 7.51563H2.3125C2.15917 7.51563 2.01212 7.57654 1.9037 7.68496C1.79528 7.79338 1.73438 7.94043 1.73438 8.09376V10.4063C1.73438 10.5596 1.79528 10.7066 1.9037 10.8151C2.01212 10.9235 2.15917 10.9844 2.3125 10.9844H4.625C5.08483 10.9848 5.52568 11.1678 5.85062 11.4931L8.72159 14.3629C8.765 14.4061 8.82021 14.4355 8.88028 14.4473C8.94034 14.4591 9.00256 14.4529 9.05909 14.4294C9.11561 14.4059 9.16391 14.3662 9.19789 14.3152C9.23186 14.2643 9.25 14.2045 9.25 14.1433V10.4756ZM9.25 4.35676V5.54769L10.9844 7.28207V4.35676C10.9843 3.9525 10.8644 3.55734 10.6397 3.22123C10.4151 2.88513 10.0959 2.62317 9.72237 2.46847C9.34888 2.31378 8.93791 2.2733 8.54142 2.35215C8.14492 2.43099 7.7807 2.62563 7.49481 2.91144L7.05428 3.35197L8.27991 4.5776L8.72159 4.13822C8.76486 4.09519 8.81986 4.06588 8.87971 4.05399C8.93956 4.04209 9.00159 4.04812 9.05802 4.07134C9.11446 4.09455 9.16278 4.13391 9.19693 4.18448C9.23108 4.23505 9.24954 4.29574 9.25 4.35676ZM13.2842 9.58069L14.7468 11.0433C14.9355 10.4643 15.0315 9.85904 15.0312 9.25001C15.033 8.01518 14.6378 6.81248 13.9039 5.81941C13.6183 5.43322 13.0633 5.43785 12.7245 5.77547C12.3858 6.1131 12.3962 6.66001 12.6552 7.06238C13.1359 7.81031 13.3569 8.69458 13.2842 9.58069ZM16.0846 12.3823L17.3761 13.6738C18.093 12.3592 18.5 10.8526 18.5 9.25001C18.5 7.00688 17.7022 4.95222 16.3748 3.35082C16.0696 2.98082 15.5157 2.98429 15.1781 3.32307C14.8393 3.66185 14.8428 4.2076 15.1411 4.58338C16.1955 5.91002 16.7683 7.55536 16.7656 9.25001C16.7656 10.3681 16.5228 11.4284 16.0834 12.3823" fill="#656565"/>
</g>
</g>
<defs>
<clipPath id="clip0_129_126">
<rect width="18.5" height="18.5" fill="white"/>
</clipPath>
</defs>
</svg>
